<svg width="228" height="124" viewBox="0 0 228 124" fill="none" xmlns="http://www.w3.org/2000/svg">
<path d="M192.715 41.5559C192.715 38.0323 189.859 35.1759 186.335 35.1759C182.812 35.1759 179.955 38.0323 179.955 41.5559V116.696C179.955 120.219 182.812 123.076 186.335 123.076C189.859 123.076 192.715 120.219 192.715 116.696V41.5559Z" fill="#0A3049"/>
<path d="M44.9553 123.066C44.2953 123.066 43.6253 122.966 42.9653 122.746C39.6753 121.656 37.8953 118.096 38.9953 114.806L64.1053 39.4658C65.2053 36.1858 68.7553 34.3858 72.0453 35.4958C75.3353 36.5858 77.1153 40.1458 76.0153 43.4358L50.9053 118.776C50.0253 121.406 47.5753 123.066 44.9453 123.066H44.9553Z" fill="#E11F26"/>
<path d="M7.28537 123.066C6.62537 123.066 5.95536 122.966 5.29536 122.746C2.00536 121.656 0.225362 118.096 1.32536 114.806L26.4354 39.4658C27.5254 36.1858 31.0854 34.3858 34.3754 35.4958C37.6654 36.5858 39.4454 40.1458 38.3454 43.4358L13.2354 118.776C12.3554 121.406 9.90536 123.066 7.27536 123.066H7.28537Z" fill="#E11F26"/>
<path d="M82.6255 123.066C81.9655 123.066 81.2954 122.966 80.6354 122.746C77.3454 121.656 75.5655 118.096 76.6655 114.806L101.775 39.4658C102.865 36.1858 106.425 34.3858 109.715 35.4958C113.005 36.5858 114.785 40.1458 113.685 43.4358L88.5754 118.776C87.6954 121.406 85.2455 123.066 82.6155 123.066H82.6255Z" fill="#E11F26"/>
<path d="M167.365 114.806L142.265 39.4759C141.175 36.1959 137.615 34.3959 134.325 35.5059C131.035 36.5959 129.255 40.1559 130.355 43.4459L144.005 84.3859H120.935C117.415 84.3859 114.555 87.2459 114.555 90.7659C114.555 94.2859 117.415 97.1459 120.935 97.1459H148.265L155.465 118.776C156.345 121.406 158.795 123.066 161.425 123.066C162.085 123.066 162.755 122.966 163.415 122.746C166.705 121.656 168.485 118.096 167.385 114.806H167.365Z" fill="#0A3049"/>
<path d="M206.945 1.01585L208.655 5.58586C210.955 11.7159 215.815 16.5459 221.965 18.7859L226.655 20.4959C227.175 20.6859 227.175 21.4259 226.655 21.6159L221.965 23.3259C215.815 25.5759 210.955 30.3959 208.655 36.5259L206.945 41.0959C206.755 41.6159 206.025 41.6159 205.825 41.0959L204.115 36.5259C201.815 30.3959 196.955 25.5659 190.805 23.3259L186.115 21.6159C185.595 21.4259 185.595 20.6859 186.115 20.4959L190.805 18.7859C196.955 16.5359 201.815 11.7159 204.115 5.58586L205.825 1.01585C206.015 0.495854 206.745 0.495854 206.945 1.01585Z" fill="#E11F26"/>
</svg>
