<svg width="14" height="19" viewBox="0 0 14 19" fill="none" xmlns="http://www.w3.org/2000/svg">
<path d="M7.11426 0.0253906C8.29897 0.0253906 9.31019 0.443383 10.1465 1.27832C10.9828 2.11464 11.4004 3.12449 11.4004 4.31055V6.02539H12.2568C12.7282 6.02541 13.1323 6.19254 13.4668 6.52832C13.8025 6.8641 13.9697 7.26693 13.9697 7.73828V16.3096C13.9697 16.7808 13.8025 17.1838 13.4668 17.5195C13.131 17.8552 12.7281 18.0224 12.2568 18.0225H1.97266V18.0254C1.50127 18.0254 1.09849 17.8573 0.762695 17.5215C0.426939 17.1857 0.259766 16.7829 0.259766 16.3115V7.73926C0.259821 7.26797 0.426953 6.86377 0.762695 6.5293C1.09845 6.19364 1.50137 6.02637 1.97266 6.02637H2.8291V4.31152C2.82917 3.1256 3.24706 2.11555 4.08203 1.2793C4.91827 0.443055 5.92962 0.0254738 7.11426 0.0253906ZM7.20703 8.71777C7.17537 8.63291 7.05518 8.63298 7.02344 8.71777L6.74023 9.47168C6.36135 10.4828 5.55892 11.2791 4.54395 11.6504L3.77051 11.9326C3.68434 11.9643 3.68434 12.0855 3.77051 12.1172L4.54395 12.4004C5.55886 12.7704 6.36132 13.5658 6.74023 14.5781L7.02344 15.332C7.05512 15.4169 7.17535 15.4169 7.20703 15.332L7.48926 14.5781C7.86816 13.567 8.67061 12.7716 9.68555 12.4004L10.46 12.1172C10.5455 12.0853 10.5455 11.9645 10.46 11.9326L9.68555 11.6504C8.67055 11.2804 7.86814 10.4841 7.48926 9.47168L7.20703 8.71777ZM7.11426 1.73926C6.40115 1.73934 5.79306 1.98902 5.29395 2.48926C4.79342 2.98978 4.54395 3.59714 4.54395 4.31055V6.02539H9.68555V4.31055C9.68554 3.59587 9.43607 2.98852 8.93555 2.48926C8.43505 1.98885 7.82758 1.73926 7.11426 1.73926Z" fill="#007AFF"/>
</svg>
