<svg width="24" height="24" viewBox="0 0 24 24" fill="none" xmlns="http://www.w3.org/2000/svg">
<g id="ios/symbol/w3w.pro.lock">
<path id="Vector" d="M6.97248 21.025C6.50109 21.025 6.09814 20.8578 5.76234 20.522C5.42654 20.1862 5.25928 19.7832 5.25928 19.3118V10.7395C5.25928 10.2681 5.42654 9.86388 5.76234 9.52935C6.09814 9.19356 6.50109 9.02629 6.97248 9.02629H7.82908V7.31182C7.82908 6.12576 8.24724 5.11584 9.0823 4.27951C9.91862 3.44319 10.9298 3.02502 12.1146 3.02502C13.2994 3.02502 14.3106 3.44319 15.1469 4.27825C15.9832 5.11457 16.4001 6.1245 16.4001 7.31056V9.02502H17.2567C17.7281 9.02502 18.1324 9.19229 18.4669 9.52809C18.8027 9.86388 18.9699 10.2668 18.9699 10.7382V19.3093C18.9699 19.7807 18.8027 20.1836 18.4669 20.5194C18.1311 20.8552 17.7281 21.0225 17.2567 21.0225H6.97248V21.025ZM9.54354 9.02502H14.6857V7.31056C14.6857 6.59588 14.436 5.98891 13.9355 5.48965C13.435 4.98912 12.828 4.73949 12.1146 4.73949C11.4012 4.73949 10.793 4.98912 10.2937 5.48965C9.79317 5.99018 9.54354 6.59715 9.54354 7.31056V9.02502Z" fill="#007AFF"/>
<path id="Vector_2" d="M15.4595 15.1175L14.6853 15.4001C13.6703 15.7714 12.8682 16.5671 12.4893 17.5783L12.2067 18.3323C12.175 18.4172 12.0547 18.4172 12.023 18.3323L11.7404 17.5783C11.3615 16.5659 10.5594 15.7701 9.54443 15.4001L8.77019 15.1175C8.68402 15.0858 8.68402 14.9642 8.77019 14.9325L9.54443 14.6499C10.5594 14.2787 11.3615 13.4829 11.7404 12.4717L12.023 11.7177C12.0547 11.6328 12.175 11.6328 12.2067 11.7177L12.4893 12.4717C12.8682 13.4841 13.6703 14.2799 14.6853 14.6499L15.4595 14.9325C15.5457 14.9642 15.5457 15.0858 15.4595 15.1175Z" fill="white"/>
</g>
</svg>
