<svg width="24" height="24" viewBox="0 0 24 24" fill="none" xmlns="http://www.w3.org/2000/svg">
<path d="M12.1143 3.02539C13.299 3.02539 14.3102 3.44338 15.1465 4.27832C15.9828 5.11464 16.4004 6.12449 16.4004 7.31055V9.02539H17.2568C17.7282 9.02541 18.1323 9.19254 18.4668 9.52832C18.8025 9.8641 18.9697 10.2669 18.9697 10.7383V19.3096C18.9697 19.7808 18.8025 20.1838 18.4668 20.5195C18.131 20.8552 17.7281 21.0224 17.2568 21.0225H6.97266V21.0254C6.50127 21.0254 6.09849 20.8573 5.7627 20.5215C5.42694 20.1857 5.25879 19.7829 5.25879 19.3115V10.7393C5.25884 10.268 5.42695 9.86377 5.7627 9.5293C6.09845 9.19364 6.50137 9.02637 6.97266 9.02637H7.8291V7.31152C7.82917 6.1256 8.24706 5.11555 9.08203 4.2793C9.91827 3.44305 10.9296 3.02547 12.1143 3.02539ZM12.207 11.7178C12.1754 11.6329 12.0552 11.633 12.0234 11.7178L11.7402 12.4717C11.3613 13.4828 10.5589 14.2791 9.54395 14.6504L8.77051 14.9326C8.68434 14.9643 8.68434 15.0855 8.77051 15.1172L9.54395 15.4004C10.5589 15.7704 11.3613 16.5658 11.7402 17.5781L12.0234 18.332C12.0551 18.4169 12.1754 18.4169 12.207 18.332L12.4893 17.5781C12.8682 16.567 13.6706 15.7716 14.6855 15.4004L15.46 15.1172C15.5455 15.0853 15.5455 14.9645 15.46 14.9326L14.6855 14.6504C13.6706 14.2804 12.8681 13.4841 12.4893 12.4717L12.207 11.7178ZM12.1143 4.73926C11.4012 4.73934 10.7931 4.98902 10.2939 5.48926C9.79342 5.98978 9.54395 6.59714 9.54395 7.31055V9.02539H14.6855V7.31055C14.6855 6.59587 14.4361 5.98852 13.9355 5.48926C13.4351 4.98885 12.8276 4.73926 12.1143 4.73926Z" fill="#007AFF"/>
</svg>
