<svg width="14" height="14" viewBox="0 0 14 14" fill="none" xmlns="http://www.w3.org/2000/svg">
<path d="M0.633301 13.3818C0.342773 13.0996 0.351074 12.6182 0.633301 12.3359L5.9458 7.01514L0.633301 1.70264C0.351074 1.42041 0.351074 0.947266 0.633301 0.656738C0.915527 0.35791 1.40527 0.366211 1.6875 0.656738L7 5.96924L12.3125 0.656738C12.5947 0.366211 13.0762 0.366211 13.3667 0.656738C13.6572 0.938965 13.6489 1.42041 13.3667 1.70264L8.0542 7.01514L13.3667 12.3359C13.6489 12.6182 13.6489 13.0913 13.3667 13.3818C13.0845 13.6724 12.5947 13.6641 12.3125 13.3818L7 8.06934L1.6875 13.3818C1.40527 13.6641 0.923828 13.6641 0.633301 13.3818Z" fill="#007AFF"/>
</svg>
