<svg width="22" height="22" viewBox="0 0 22 22" fill="none" xmlns="http://www.w3.org/2000/svg">
<path d="M18.9772 0.08415C19.4722 1.40855 20.5238 2.44915 21.8504 2.93535L21.8658 2.93975C21.978 2.98155 21.978 3.13995 21.8658 3.18175L21.8504 3.18615C20.5216 3.67235 19.4722 4.71295 18.9772 6.03735C18.9354 6.14955 18.777 6.14955 18.7374 6.03735C18.2424 4.71295 17.1908 3.67235 15.8642 3.18615L15.8488 3.18175C15.7366 3.13995 15.7366 2.98155 15.8488 2.93975L15.8642 2.93535C17.193 2.44915 18.2424 1.40855 18.7374 0.08415C18.7792 -0.02805 18.9376 -0.02805 18.9772 0.08415Z" fill="#007AFF"/>
<path d="M20.7892 11.0046L10.3946 21.3992L0 11.0046L10.3946 0.610031L20.7892 11.0046Z" fill="#007AFF"/>
<path d="M8.93074 7.67603C8.60529 7.55757 8.24363 7.71523 8.1268 8.03623L6.12509 13.5359C6.00826 13.8569 6.18397 14.2101 6.50941 14.3286C6.83486 14.447 7.19652 14.2894 7.31335 13.9684L9.31506 8.46872C9.43189 8.14772 9.25618 7.79448 8.93074 7.67603Z" fill="white"/>
<path d="M14.2794 7.68046C13.9539 7.56201 13.5923 7.71966 13.4755 8.04066L11.4737 13.5403C11.3569 13.8613 11.5326 14.2145 11.8581 14.333C12.1835 14.4514 12.5452 14.2938 12.662 13.9728L14.6637 8.47316C14.7805 8.15215 14.6048 7.79891 14.2794 7.68046Z" fill="white"/>
<path d="M11.599 7.68093C11.2736 7.56248 10.9119 7.72013 10.7951 8.04113L8.79339 13.5408C8.67656 13.8618 8.85227 14.215 9.17771 14.3335C9.50316 14.4519 9.86482 14.2943 9.98165 13.9733L11.9834 8.47363C12.1002 8.15263 11.9245 7.79939 11.599 7.68093Z" fill="white"/>
</svg>
