<svg width="16" height="16" viewBox="0 0 16 16" fill="none" xmlns="http://www.w3.org/2000/svg">
<path fill-rule="evenodd" clip-rule="evenodd" d="M1 1.41176C1 1.18435 1.18435 1 1.41176 1H4.54902C4.77643 1 4.96078 1.18435 4.96078 1.41176C4.96078 1.63918 4.77643 1.82353 4.54902 1.82353H1.82353V5.36471C1.82353 5.59212 1.63918 5.77647 1.41176 5.77647C1.18435 5.77647 1 5.59212 1 5.36471V1.41176ZM11.0392 1.41176C11.0392 1.18435 11.2236 1 11.451 1H14.5882C14.8156 1 15 1.18435 15 1.41176V5.36471C15 5.59212 14.8156 5.77647 14.5882 5.77647C14.3608 5.77647 14.1765 5.59212 14.1765 5.36471V1.82353H11.451C11.2236 1.82353 11.0392 1.63918 11.0392 1.41176ZM1.41176 10.2235C1.63918 10.2235 1.82353 10.4079 1.82353 10.6353V14.1765H4.54902C4.77643 14.1765 4.96078 14.3608 4.96078 14.5882C4.96078 14.8156 4.77643 15 4.54902 15H1.41176C1.18435 15 1 14.8156 1 14.5882V10.6353C1 10.4079 1.18435 10.2235 1.41176 10.2235ZM14.5882 10.2235C14.8156 10.2235 15 10.4079 15 10.6353V14.5882C15 14.8156 14.8156 15 14.5882 15H11.451C11.2236 15 11.0392 14.8156 11.0392 14.5882C11.0392 14.3608 11.2236 14.1765 11.451 14.1765H14.1765V10.6353C14.1765 10.4079 14.3608 10.2235 14.5882 10.2235Z" fill="#007AFF"/>
<path d="M1.82353 1.82353V1.67353C1.74069 1.67353 1.67353 1.74069 1.67353 1.82353H1.82353ZM14.1765 1.82353H14.3265C14.3265 1.74069 14.2593 1.67353 14.1765 1.67353V1.82353ZM1.82353 14.1765H1.67353C1.67353 14.2593 1.74069 14.3265 1.82353 14.3265V14.1765ZM14.1765 14.1765V14.3265C14.2593 14.3265 14.3265 14.2593 14.3265 14.1765H14.1765ZM1.41176 0.85C1.10151 0.85 0.85 1.10151 0.85 1.41176H1.15C1.15 1.2672 1.2672 1.15 1.41176 1.15V0.85ZM4.54902 0.85H1.41176V1.15H4.54902V0.85ZM5.11078 1.41176C5.11078 1.10151 4.85927 0.85 4.54902 0.85V1.15C4.69359 1.15 4.81078 1.2672 4.81078 1.41176H5.11078ZM4.54902 1.97353C4.85927 1.97353 5.11078 1.72202 5.11078 1.41176H4.81078C4.81078 1.55633 4.69359 1.67353 4.54902 1.67353V1.97353ZM1.82353 1.97353H4.54902V1.67353H1.82353V1.97353ZM1.97353 5.36471V1.82353H1.67353V5.36471H1.97353ZM1.41176 5.92647C1.72202 5.92647 1.97353 5.67496 1.97353 5.36471H1.67353C1.67353 5.50927 1.55633 5.62647 1.41176 5.62647V5.92647ZM0.85 5.36471C0.85 5.67496 1.10151 5.92647 1.41176 5.92647V5.62647C1.2672 5.62647 1.15 5.50927 1.15 5.36471H0.85ZM0.85 1.41176V5.36471H1.15V1.41176H0.85ZM11.451 0.85C11.1407 0.85 10.8892 1.10151 10.8892 1.41176H11.1892C11.1892 1.2672 11.3064 1.15 11.451 1.15V0.85ZM14.5882 0.85H11.451V1.15H14.5882V0.85ZM15.15 1.41176C15.15 1.10151 14.8985 0.85 14.5882 0.85V1.15C14.7328 1.15 14.85 1.2672 14.85 1.41176H15.15ZM15.15 5.36471V1.41176H14.85V5.36471H15.15ZM14.5882 5.92647C14.8985 5.92647 15.15 5.67496 15.15 5.36471H14.85C14.85 5.50927 14.7328 5.62647 14.5882 5.62647V5.92647ZM14.0265 5.36471C14.0265 5.67496 14.278 5.92647 14.5882 5.92647V5.62647C14.4437 5.62647 14.3265 5.50927 14.3265 5.36471H14.0265ZM14.0265 1.82353V5.36471H14.3265V1.82353H14.0265ZM11.451 1.97353H14.1765V1.67353H11.451V1.97353ZM10.8892 1.41176C10.8892 1.72202 11.1407 1.97353 11.451 1.97353V1.67353C11.3064 1.67353 11.1892 1.55633 11.1892 1.41176H10.8892ZM1.97353 10.6353C1.97353 10.325 1.72202 10.0735 1.41176 10.0735V10.3735C1.55633 10.3735 1.67353 10.4907 1.67353 10.6353H1.97353ZM1.97353 14.1765V10.6353H1.67353V14.1765H1.97353ZM4.54902 14.0265H1.82353V14.3265H4.54902V14.0265ZM5.11078 14.5882C5.11078 14.278 4.85927 14.0265 4.54902 14.0265V14.3265C4.69359 14.3265 4.81078 14.4437 4.81078 14.5882H5.11078ZM4.54902 15.15C4.85927 15.15 5.11078 14.8985 5.11078 14.5882H4.81078C4.81078 14.7328 4.69359 14.85 4.54902 14.85V15.15ZM1.41176 15.15H4.54902V14.85H1.41176V15.15ZM0.85 14.5882C0.85 14.8985 1.10151 15.15 1.41176 15.15V14.85C1.2672 14.85 1.15 14.7328 1.15 14.5882H0.85ZM0.85 10.6353V14.5882H1.15V10.6353H0.85ZM1.41176 10.0735C1.10151 10.0735 0.85 10.325 0.85 10.6353H1.15C1.15 10.4907 1.2672 10.3735 1.41176 10.3735V10.0735ZM15.15 10.6353C15.15 10.325 14.8985 10.0735 14.5882 10.0735V10.3735C14.7328 10.3735 14.85 10.4907 14.85 10.6353H15.15ZM15.15 14.5882V10.6353H14.85V14.5882H15.15ZM14.5882 15.15C14.8985 15.15 15.15 14.8985 15.15 14.5882H14.85C14.85 14.7328 14.7328 14.85 14.5882 14.85V15.15ZM11.451 15.15H14.5882V14.85H11.451V15.15ZM10.8892 14.5882C10.8892 14.8985 11.1407 15.15 11.451 15.15V14.85C11.3064 14.85 11.1892 14.7328 11.1892 14.5882H10.8892ZM11.451 14.0265C11.1407 14.0265 10.8892 14.278 10.8892 14.5882H11.1892C11.1892 14.4437 11.3064 14.3265 11.451 14.3265V14.0265ZM14.1765 14.0265H11.451V14.3265H14.1765V14.0265ZM14.0265 10.6353V14.1765H14.3265V10.6353H14.0265ZM14.5882 10.0735C14.278 10.0735 14.0265 10.325 14.0265 10.6353H14.3265C14.3265 10.4907 14.4437 10.3735 14.5882 10.3735V10.0735Z" fill="#007AFF"/>
<path d="M6.67239 4.98072C6.3772 4.87328 6.04916 5.01628 5.94319 5.30743L4.12758 10.2958C4.02161 10.5869 4.18099 10.9073 4.47617 11.0148C4.77136 11.1222 5.0994 10.9792 5.20537 10.6881L7.02098 5.69972C7.12695 5.40856 6.96757 5.08816 6.67239 4.98072Z" fill="#007AFF"/>
<path d="M11.5238 4.98474C11.2286 4.8773 10.9006 5.0203 10.7946 5.31146L8.97897 10.2998C8.873 10.591 9.03237 10.9114 9.32756 11.0188C9.62275 11.1262 9.95079 10.9832 10.0568 10.6921L11.8724 5.70374C11.9783 5.41258 11.819 5.09218 11.5238 4.98474Z" fill="#007AFF"/>
<path d="M9.09262 4.98517C8.79743 4.87773 8.46939 5.02073 8.36342 5.31189L6.54781 10.3002C6.44184 10.5914 6.60121 10.9118 6.8964 11.0192C7.19159 11.1267 7.51963 10.9837 7.6256 10.6925L9.44121 5.70417C9.54718 5.41301 9.3878 5.09261 9.09262 4.98517Z" fill="#007AFF"/>
</svg>
