<svg width="24" height="24" viewBox="0 0 24 24" fill="none" xmlns="http://www.w3.org/2000/svg">
<path fill-rule="evenodd" clip-rule="evenodd" d="M5 5.41176C5 5.18435 5.18435 5 5.41176 5H8.54902C8.77643 5 8.96078 5.18435 8.96078 5.41176C8.96078 5.63918 8.77643 5.82353 8.54902 5.82353H5.82353V9.36471C5.82353 9.59212 5.63918 9.77647 5.41176 9.77647C5.18435 9.77647 5 9.59212 5 9.36471V5.41176ZM15.0392 5.41176C15.0392 5.18435 15.2236 5 15.451 5H18.5882C18.8156 5 19 5.18435 19 5.41176V9.36471C19 9.59212 18.8156 9.77647 18.5882 9.77647C18.3608 9.77647 18.1765 9.59212 18.1765 9.36471V5.82353H15.451C15.2236 5.82353 15.0392 5.63918 15.0392 5.41176ZM5.41176 14.2235C5.63918 14.2235 5.82353 14.4079 5.82353 14.6353V18.1765H8.54902C8.77643 18.1765 8.96078 18.3608 8.96078 18.5882C8.96078 18.8156 8.77643 19 8.54902 19H5.41176C5.18435 19 5 18.8156 5 18.5882V14.6353C5 14.4079 5.18435 14.2235 5.41176 14.2235ZM18.5882 14.2235C18.8156 14.2235 19 14.4079 19 14.6353V18.5882C19 18.8156 18.8156 19 18.5882 19H15.451C15.2236 19 15.0392 18.8156 15.0392 18.5882C15.0392 18.3608 15.2236 18.1765 15.451 18.1765H18.1765V14.6353C18.1765 14.4079 18.3608 14.2235 18.5882 14.2235Z" fill="#007AFF"/>
<path d="M5.82353 5.82353V5.67353C5.74069 5.67353 5.67353 5.74069 5.67353 5.82353H5.82353ZM18.1765 5.82353H18.3265C18.3265 5.74069 18.2593 5.67353 18.1765 5.67353V5.82353ZM5.82353 18.1765H5.67353C5.67353 18.2593 5.74069 18.3265 5.82353 18.3265V18.1765ZM18.1765 18.1765V18.3265C18.2593 18.3265 18.3265 18.2593 18.3265 18.1765H18.1765ZM5.41176 4.85C5.10151 4.85 4.85 5.10151 4.85 5.41176H5.15C5.15 5.2672 5.2672 5.15 5.41176 5.15V4.85ZM8.54902 4.85H5.41176V5.15H8.54902V4.85ZM9.11078 5.41176C9.11078 5.10151 8.85927 4.85 8.54902 4.85V5.15C8.69359 5.15 8.81078 5.2672 8.81078 5.41176H9.11078ZM8.54902 5.97353C8.85927 5.97353 9.11078 5.72202 9.11078 5.41176H8.81078C8.81078 5.55633 8.69359 5.67353 8.54902 5.67353V5.97353ZM5.82353 5.97353H8.54902V5.67353H5.82353V5.97353ZM5.97353 9.36471V5.82353H5.67353V9.36471H5.97353ZM5.41176 9.92647C5.72202 9.92647 5.97353 9.67496 5.97353 9.36471H5.67353C5.67353 9.50927 5.55633 9.62647 5.41176 9.62647V9.92647ZM4.85 9.36471C4.85 9.67496 5.10151 9.92647 5.41176 9.92647V9.62647C5.2672 9.62647 5.15 9.50927 5.15 9.36471H4.85ZM4.85 5.41176V9.36471H5.15V5.41176H4.85ZM15.451 4.85C15.1407 4.85 14.8892 5.10151 14.8892 5.41176H15.1892C15.1892 5.2672 15.3064 5.15 15.451 5.15V4.85ZM18.5882 4.85H15.451V5.15H18.5882V4.85ZM19.15 5.41176C19.15 5.10151 18.8985 4.85 18.5882 4.85V5.15C18.7328 5.15 18.85 5.2672 18.85 5.41176H19.15ZM19.15 9.36471V5.41176H18.85V9.36471H19.15ZM18.5882 9.92647C18.8985 9.92647 19.15 9.67496 19.15 9.36471H18.85C18.85 9.50927 18.7328 9.62647 18.5882 9.62647V9.92647ZM18.0265 9.36471C18.0265 9.67496 18.278 9.92647 18.5882 9.92647V9.62647C18.4437 9.62647 18.3265 9.50927 18.3265 9.36471H18.0265ZM18.0265 5.82353V9.36471H18.3265V5.82353H18.0265ZM15.451 5.97353H18.1765V5.67353H15.451V5.97353ZM14.8892 5.41176C14.8892 5.72202 15.1407 5.97353 15.451 5.97353V5.67353C15.3064 5.67353 15.1892 5.55633 15.1892 5.41176H14.8892ZM5.97353 14.6353C5.97353 14.325 5.72202 14.0735 5.41176 14.0735V14.3735C5.55633 14.3735 5.67353 14.4907 5.67353 14.6353H5.97353ZM5.97353 18.1765V14.6353H5.67353V18.1765H5.97353ZM8.54902 18.0265H5.82353V18.3265H8.54902V18.0265ZM9.11078 18.5882C9.11078 18.278 8.85927 18.0265 8.54902 18.0265V18.3265C8.69359 18.3265 8.81078 18.4437 8.81078 18.5882H9.11078ZM8.54902 19.15C8.85927 19.15 9.11078 18.8985 9.11078 18.5882H8.81078C8.81078 18.7328 8.69359 18.85 8.54902 18.85V19.15ZM5.41176 19.15H8.54902V18.85H5.41176V19.15ZM4.85 18.5882C4.85 18.8985 5.10151 19.15 5.41176 19.15V18.85C5.2672 18.85 5.15 18.7328 5.15 18.5882H4.85ZM4.85 14.6353V18.5882H5.15V14.6353H4.85ZM5.41176 14.0735C5.10151 14.0735 4.85 14.325 4.85 14.6353H5.15C5.15 14.4907 5.2672 14.3735 5.41176 14.3735V14.0735ZM19.15 14.6353C19.15 14.325 18.8985 14.0735 18.5882 14.0735V14.3735C18.7328 14.3735 18.85 14.4907 18.85 14.6353H19.15ZM19.15 18.5882V14.6353H18.85V18.5882H19.15ZM18.5882 19.15C18.8985 19.15 19.15 18.8985 19.15 18.5882H18.85C18.85 18.7328 18.7328 18.85 18.5882 18.85V19.15ZM15.451 19.15H18.5882V18.85H15.451V19.15ZM14.8892 18.5882C14.8892 18.8985 15.1407 19.15 15.451 19.15V18.85C15.3064 18.85 15.1892 18.7328 15.1892 18.5882H14.8892ZM15.451 18.0265C15.1407 18.0265 14.8892 18.278 14.8892 18.5882H15.1892C15.1892 18.4437 15.3064 18.3265 15.451 18.3265V18.0265ZM18.1765 18.0265H15.451V18.3265H18.1765V18.0265ZM18.0265 14.6353V18.1765H18.3265V14.6353H18.0265ZM18.5882 14.0735C18.278 14.0735 18.0265 14.325 18.0265 14.6353H18.3265C18.3265 14.4907 18.4437 14.3735 18.5882 14.3735V14.0735Z" fill="#007AFF"/>
<path d="M10.6724 8.98072C10.3772 8.87328 10.0492 9.01628 9.94319 9.30743L8.12758 14.2958C8.02161 14.5869 8.18099 14.9073 8.47617 15.0148C8.77136 15.1222 9.0994 14.9792 9.20537 14.6881L11.021 9.69972C11.1269 9.40856 10.9676 9.08816 10.6724 8.98072Z" fill="#007AFF"/>
<path d="M15.5238 8.98474C15.2286 8.8773 14.9006 9.0203 14.7946 9.31146L12.979 14.2998C12.873 14.591 13.0324 14.9114 13.3276 15.0188C13.6227 15.1262 13.9508 14.9832 14.0568 14.6921L15.8724 9.70374C15.9783 9.41258 15.819 9.09218 15.5238 8.98474Z" fill="#007AFF"/>
<path d="M13.0926 8.98517C12.7974 8.87773 12.4694 9.02073 12.3634 9.31189L10.5478 14.3002C10.4418 14.5914 10.6012 14.9118 10.8964 15.0192C11.1916 15.1267 11.5196 14.9837 11.6256 14.6925L13.4412 9.70417C13.5472 9.41301 13.3878 9.09261 13.0926 8.98517Z" fill="#007AFF"/>
</svg>
