<svg width="16" height="16" viewBox="0 0 16 16" fill="none" xmlns="http://www.w3.org/2000/svg">
<path fill-rule="evenodd" clip-rule="evenodd" d="M0 15.9998H16V-0.000244141H0V15.9998ZM14.5631 14.5629H1.43689V1.43665H14.5631V14.5629ZM6.8687 5.22882C7.0094 4.84224 6.79724 4.41988 6.40952 4.27877C6.0218 4.13765 5.58779 4.32481 5.44709 4.71139L3.24363 10.7653C3.10293 11.1519 3.31509 11.5743 3.70281 11.7154C4.09053 11.8565 4.52454 11.6693 4.66525 11.2828L6.8687 5.22882ZM9.80593 5.23422C9.94663 4.84764 9.73447 4.42529 9.34675 4.28417C8.95903 4.14305 8.52502 4.33022 8.38432 4.7168L6.18087 10.7707C6.04016 11.1573 6.25232 11.5797 6.64004 11.7208C7.02776 11.8619 7.46177 11.6747 7.60248 11.2882L9.80593 5.23422ZM12.7564 5.2337C12.8971 4.84712 12.685 4.42477 12.2973 4.28365C11.9095 4.14253 11.4755 4.3297 11.3348 4.71628L9.13137 10.7702C8.99066 11.1568 9.20283 11.5791 9.59055 11.7203C9.97827 11.8614 10.4123 11.6742 10.553 11.2876L12.7564 5.2337Z" fill="#007AFF"/>
</svg>
