<svg width="608" height="103" viewBox="0 0 608 103" fill="none" xmlns="http://www.w3.org/2000/svg">
<path d="M88.1112 14.3959H0.211182V102.296H88.1112V14.3959Z" fill="#E11F26"/>
<path d="M38.6613 77.5759C38.3713 77.5759 38.0813 77.5259 37.7913 77.4359C36.3513 76.9559 35.5713 75.4059 36.0513 73.9659L47.0413 41.0059C47.5213 39.5659 49.0713 38.7859 50.5213 39.2659C51.9613 39.7459 52.7413 41.2959 52.2613 42.7359L41.2713 75.6959C40.8913 76.8459 39.8113 77.5759 38.6613 77.5759Z" fill="white"/>
<path d="M22.1813 77.5759C21.8913 77.5759 21.6013 77.5259 21.3113 77.4359C19.8713 76.9559 19.0913 75.4059 19.5713 73.9659L30.5613 41.0059C31.0413 39.5659 32.5913 38.7859 34.0413 39.2659C35.4813 39.7459 36.2613 41.2959 35.7813 42.7359L24.7913 75.6959C24.4113 76.8459 23.3313 77.5759 22.1813 77.5759Z" fill="white"/>
<path d="M55.1412 77.5759C54.8512 77.5759 54.5613 77.5259 54.2713 77.4359C52.8313 76.9559 52.0512 75.4059 52.5312 73.9659L63.5213 41.0059C64.0013 39.5659 65.5512 38.7859 67.0012 39.2659C68.4412 39.7459 69.2213 41.2959 68.7413 42.7359L57.7512 75.6959C57.3712 76.8459 56.2912 77.5759 55.1412 77.5759Z" fill="white"/>
<path d="M442.511 39.1058C438.021 39.1058 434.121 40.2058 431.591 42.5958V41.8558C431.591 40.3358 430.361 39.1058 428.841 39.1058C427.321 39.1058 426.091 40.3358 426.091 41.8558V74.8258C426.091 76.3458 427.321 77.5758 428.841 77.5758C430.361 77.5758 431.591 76.3458 431.591 74.8258V56.6358C431.591 48.4758 434.291 44.6058 442.441 44.5958C443.781 44.5558 445.201 43.4058 445.221 41.8858C445.241 40.3658 444.031 39.1058 442.511 39.1058Z" fill="#0A3049"/>
<path d="M141.051 77.5658C139.901 77.5658 138.871 76.8458 138.471 75.7558L129.061 49.9758L119.881 75.7358C119.491 76.8258 118.531 77.7958 117.291 77.5558C116.141 77.5558 115.111 76.8358 114.711 75.7458L102.681 42.7858C102.161 41.3658 102.891 39.7858 104.321 39.2658C105.751 38.7458 107.321 39.4858 107.841 40.9058L117.261 66.7158L126.341 41.2558C126.481 40.6158 126.851 40.0358 127.401 39.6358C128.381 38.9158 129.731 38.9258 130.701 39.6758C131.171 40.0358 131.511 40.5358 131.671 41.0858L141.021 66.7158L150.211 40.9458C150.721 39.5158 152.281 38.7758 153.721 39.2758C155.151 39.7858 155.891 41.3558 155.381 42.7858L143.631 75.7358C143.241 76.8258 142.141 77.7958 141.041 77.5558L141.051 77.5658Z" fill="#0A3049"/>
<path d="M181.021 39.0958C176.691 39.0958 173.161 40.3158 170.421 42.5858V25.3658C170.421 23.8458 169.191 22.6158 167.671 22.6158C166.151 22.6158 164.921 23.8458 164.921 25.3658V74.8158C164.921 76.3358 166.151 77.5658 167.671 77.5658C169.191 77.5658 170.421 76.3358 170.421 74.8158V54.3658C170.421 53.3658 170.801 44.5858 181.021 44.5858C190.111 44.5858 190.461 53.1358 190.471 54.1058V74.8158C190.471 76.3358 191.701 77.5658 193.221 77.5658C194.741 77.5658 195.971 76.3358 195.971 74.8158V54.1058C195.971 48.9158 192.851 39.0958 181.031 39.0958H181.021Z" fill="#0A3049"/>
<path d="M269.681 72.0758C265.041 72.0758 263.231 70.0359 263.231 64.8158V44.5958H269.681C271.201 44.5958 272.431 43.3658 272.431 41.8458C272.431 40.3258 271.201 39.0958 269.681 39.0958H263.231V33.1158C263.231 31.5958 262.001 30.3658 260.481 30.3658C258.961 30.3658 257.731 31.5958 257.731 33.1158V39.0958H253.431C251.911 39.0958 250.681 40.3258 250.681 41.8458C250.681 43.3658 251.911 44.5958 253.431 44.5958H257.731V64.8158C257.731 75.9158 265.211 77.5758 269.671 77.5758C271.191 77.5758 272.421 76.3458 272.421 74.8258C272.421 73.3058 271.191 72.0758 269.671 72.0758H269.681Z" fill="#0A3049"/>
<path d="M296.171 78.8658C288.641 78.8658 282.311 72.9858 281.761 65.4758C281.651 63.9658 282.791 62.6458 284.301 62.5358C285.781 62.3958 287.131 63.5658 287.241 65.0758C287.581 69.7258 291.501 73.3658 296.171 73.3658C301.111 73.3658 305.121 69.3458 305.121 64.4158C305.121 59.4858 301.101 55.4658 296.171 55.4658C294.651 55.4658 293.421 54.2358 293.421 52.7158C293.421 51.1958 294.651 49.9658 296.171 49.9658C300.241 49.9658 303.541 46.6558 303.541 42.5958C303.541 38.5358 300.231 35.2258 296.171 35.2258C292.331 35.2258 289.101 38.2258 288.821 42.0558C288.711 43.5658 287.371 44.7058 285.881 44.5958C284.371 44.4858 283.231 43.1758 283.341 41.6558C283.831 34.9658 289.461 29.7358 296.171 29.7358C303.261 29.7358 309.041 35.5058 309.041 42.5958C309.041 46.5858 307.221 50.1558 304.361 52.5158C308.141 55.1258 310.621 59.4858 310.621 64.4158C310.621 72.3858 304.141 78.8658 296.171 78.8658Z" fill="#0A3049"/>
<path d="M357.401 77.5658C356.251 77.5658 355.221 76.8458 354.821 75.7558L345.411 49.9758L336.231 75.7358C335.841 76.8258 334.811 77.5558 333.651 77.5558H333.641C332.491 77.5558 331.461 76.8358 331.061 75.7458L319.031 42.7858C318.511 41.3658 319.241 39.7858 320.671 39.2658C322.101 38.7458 323.671 39.4758 324.191 40.9058L333.611 66.7158L342.691 41.2558C342.831 40.6158 343.201 40.0358 343.751 39.6358C344.741 38.9158 346.081 38.9258 347.051 39.6758C347.521 40.0358 347.861 40.5358 348.021 41.0858L357.371 66.7158L366.561 40.9458C367.071 39.5158 368.631 38.7758 370.071 39.2758C371.501 39.7858 372.241 41.3558 371.731 42.7858L359.981 75.7358C359.591 76.8258 358.561 77.5558 357.401 77.5558H357.391L357.401 77.5658Z" fill="#0A3049"/>
<path d="M397.341 77.5658C386.741 77.5658 378.111 68.9358 378.111 58.3358C378.111 47.7358 386.741 39.1058 397.341 39.1058C407.941 39.1058 416.571 47.7358 416.571 58.3358C416.571 68.9358 407.941 77.5658 397.341 77.5658ZM397.341 44.6058C389.771 44.6058 383.611 50.7658 383.611 58.3358C383.611 65.9058 389.771 72.0658 397.341 72.0658C404.911 72.0658 411.071 65.9058 411.071 58.3358C411.071 50.7658 404.911 44.6058 397.341 44.6058Z" fill="#0A3049"/>
<path d="M484.411 22.6158C482.891 22.6158 481.661 23.8458 481.661 25.3658V44.6458C478.351 41.2358 473.821 39.1158 468.831 39.1158C458.731 39.1158 450.501 47.7458 450.501 58.3458C450.501 68.9458 458.721 77.5758 468.831 77.5758C473.831 77.5758 478.351 75.4558 481.661 72.0458V74.8358C481.661 76.3558 482.891 77.5858 484.411 77.5858C485.931 77.5858 487.161 76.3558 487.161 74.8358V25.3858C487.161 23.8658 485.931 22.6358 484.411 22.6358V22.6158ZM468.831 72.0758C461.751 72.0758 456.001 65.9158 456.001 58.3458C456.001 50.7758 461.761 44.6158 468.831 44.6158C475.901 44.6158 481.661 50.7758 481.661 58.3458C481.661 65.9158 475.901 72.0758 468.831 72.0758Z" fill="#0A3049"/>
<path d="M238.471 39.1158C236.951 39.1158 235.721 40.3458 235.721 41.8658V44.6858C232.411 41.2458 227.861 39.1158 222.851 39.1158C212.751 39.1158 204.521 47.7458 204.521 58.3458C204.521 68.9458 212.741 77.5758 222.851 77.5758C227.871 77.5758 232.411 75.4458 235.721 72.0058C235.721 72.0058 235.921 71.4958 235.721 74.8258C235.721 76.3458 236.951 77.5758 238.471 77.5758C239.991 77.5758 241.221 76.3458 241.221 74.8258V41.8658C241.221 40.3458 239.991 39.1158 238.471 39.1158ZM222.851 72.0758C215.771 72.0758 210.021 65.9158 210.021 58.3458C210.021 50.7758 215.781 44.6158 222.851 44.6158C229.921 44.6158 235.681 50.7758 235.681 58.3458C235.681 65.9158 229.921 72.0758 222.851 72.0758Z" fill="#0A3049"/>
<path d="M509.991 77.5458C504.271 77.5458 499.551 75.0858 497.041 70.7858C496.301 69.5158 496.631 67.8158 497.771 66.9858C498.921 66.1658 500.451 66.5258 501.201 67.8058C502.781 70.5058 506.451 72.5158 510.021 72.5158C514.611 72.5158 517.531 70.5758 517.531 67.4858C517.531 64.3958 514.161 63.0858 509.041 60.7358C503.281 58.0858 497.681 56.2158 497.581 49.2458C497.511 44.5858 502.291 39.5558 509.571 39.1158C514.041 38.8358 518.441 40.5958 520.771 43.0958C521.751 44.1458 521.851 45.8558 520.931 46.9758C520.011 48.0958 518.511 48.1658 517.431 47.1558C511.751 41.8458 502.591 44.3458 502.591 49.2458C502.591 52.2158 506.781 53.8658 510.931 55.7258C514.981 57.5458 522.621 60.4058 522.621 67.4858C522.621 72.0558 518.641 77.5358 509.981 77.5358L509.991 77.5458Z" fill="#0A3049"/>
<path d="M582.261 22.5659H582.251C580.047 22.5659 578.261 24.3523 578.261 26.5559V73.5759C578.261 75.7795 580.047 77.5659 582.251 77.5659H582.261C584.465 77.5659 586.251 75.7795 586.251 73.5759V26.5559C586.251 24.3523 584.465 22.5659 582.261 22.5659Z" fill="#0A3049"/>
<path d="M570.381 72.4059L554.671 25.2659C553.991 23.2159 551.761 22.0859 549.701 22.7859C547.641 23.4659 546.531 25.6959 547.221 27.7559L555.821 53.5459L541.271 53.4459C539.541 53.4459 538.061 54.5659 537.541 56.1259C537.411 56.5159 537.341 56.9359 537.341 57.3659C537.341 59.5359 539.091 61.2959 541.261 61.3059L558.461 61.4259L562.941 74.8959C563.491 76.5459 565.021 77.5859 566.671 77.5859C567.081 77.5859 567.501 77.5159 567.911 77.3859C569.971 76.7059 571.081 74.4759 570.391 72.4159L570.381 72.4059Z" fill="#0A3049"/>
<path d="M595.201 1.19593L596.271 4.05593C597.711 7.89593 600.751 10.9159 604.601 12.3159L607.541 13.3859C607.871 13.5059 607.871 13.9659 607.541 14.0859L604.601 15.1559C600.751 16.5659 597.711 19.5759 596.271 23.4159L595.201 26.2759C595.081 26.5959 594.621 26.5959 594.501 26.2759L593.431 23.4159C591.991 19.5759 588.951 16.5559 585.101 15.1559L582.161 14.0859C581.831 13.9659 581.831 13.5059 582.161 13.3859L585.101 12.3159C588.951 10.9059 591.991 7.89593 593.431 4.05593L594.501 1.19593C594.621 0.875933 595.081 0.875933 595.201 1.19593Z" fill="#E11F26"/>
</svg>
