<svg width="24" height="24" viewBox="0 0 24 24" fill="none" xmlns="http://www.w3.org/2000/svg">
<path fill-rule="evenodd" clip-rule="evenodd" d="M13.7658 5.19448C13.9361 4.73573 13.7022 4.22583 13.2434 4.05559C12.7847 3.88535 12.2748 4.11923 12.1046 4.57798L6.82477 18.8055C6.65453 19.2643 6.88841 19.7742 7.34716 19.9444C7.80591 20.1146 8.31581 19.8808 8.48605 19.422L13.7658 5.19448ZM19.9457 12.3681C20.116 11.9093 19.8821 11.3994 19.4234 11.2292C18.9646 11.059 18.4547 11.2928 18.2845 11.7516L17.7 13.3266C17.5297 13.7854 17.7636 14.2953 18.2224 14.4655C18.6811 14.6357 19.191 14.4019 19.3613 13.9431L19.9457 12.3681ZM16.5678 7.01121C17.0265 7.18145 17.2604 7.69135 17.0902 8.1501L14.0041 16.4663C13.8338 16.9251 13.3239 17.159 12.8652 16.9887C12.4064 16.8185 12.1725 16.3086 12.3428 15.8498L15.4289 7.5336C15.5991 7.07485 16.109 6.84097 16.5678 7.01121ZM7.96367 8.91496C8.13391 8.45621 7.90003 7.94632 7.44128 7.77608C6.98253 7.60584 6.47264 7.83972 6.3024 8.29847L4.05437 14.3563C3.88413 14.815 4.11801 15.3249 4.57676 15.4952C5.03551 15.6654 5.54541 15.4315 5.71565 14.9728L7.96367 8.91496Z" fill="#007AFF"/>
</svg>
