<svg width="14" height="17" viewBox="0 0 14 17" fill="none" xmlns="http://www.w3.org/2000/svg">
<path d="M3.11084 16.5635C1.59473 16.5635 0.840332 15.8018 0.840332 14.271V3.16016C0.840332 1.63672 1.60205 0.860352 3.11084 0.860352H6.58984C7.41016 0.860352 7.87158 0.984863 8.42822 1.55615L12.4639 5.66504C13.0498 6.26562 13.1597 6.67578 13.1597 7.62061V14.271C13.1597 15.7944 12.4053 16.5635 10.8892 16.5635H3.11084ZM3.16211 15.3843H10.8306C11.5923 15.3843 11.9805 14.9814 11.9805 14.249V7.67188H7.80566C6.89014 7.67188 6.42871 7.21777 6.42871 6.29492V2.03955H3.16943C2.40771 2.03955 2.01953 2.45703 2.01953 3.18213V14.249C2.01953 14.9814 2.40771 15.3843 3.16211 15.3843ZM7.9375 6.56592H11.7534L7.53467 2.2666V6.15576C7.53467 6.44873 7.64453 6.56592 7.9375 6.56592Z" fill="#007AFF"/>
</svg>
