<svg width="713" height="98" viewBox="0 0 713 98" fill="none" xmlns="http://www.w3.org/2000/svg">
<path d="M87.9 9.79089H0V97.6909H87.9V9.79089Z" fill="white"/>
<path d="M38.4501 72.9709C38.1601 72.9709 37.8701 72.9209 37.5801 72.8309C36.1401 72.3509 35.3601 70.8009 35.8401 69.3609L46.8301 36.4009C47.3101 34.9609 48.8601 34.1809 50.3101 34.6609C51.7501 35.1409 52.5301 36.6909 52.0501 38.1309L41.0601 71.0909C40.6801 72.2409 39.6001 72.9709 38.4501 72.9709Z" fill="#E11F26"/>
<path d="M21.9701 72.9709C21.6801 72.9709 21.3901 72.9209 21.1001 72.8309C19.6601 72.3509 18.8801 70.8009 19.3601 69.3609L30.3501 36.4009C30.8301 34.9609 32.3801 34.1809 33.8301 34.6609C35.2701 35.1409 36.0501 36.6909 35.5701 38.1309L24.5801 71.0909C24.2001 72.2409 23.1201 72.9709 21.9701 72.9709Z" fill="#E11F26"/>
<path d="M54.9301 72.9709C54.6401 72.9709 54.3501 72.9209 54.0601 72.8309C52.6201 72.3509 51.8401 70.8009 52.3201 69.3609L63.3101 36.4009C63.7901 34.9609 65.3401 34.1809 66.7901 34.6609C68.2301 35.1409 69.0101 36.6909 68.5301 38.1309L57.5401 71.0909C57.1601 72.2409 56.0801 72.9709 54.9301 72.9709Z" fill="#E11F26"/>
<path d="M442.3 34.5009C437.81 34.5009 433.91 35.6009 431.38 37.9909V37.2509C431.38 35.7309 430.15 34.5009 428.63 34.5009C427.11 34.5009 425.88 35.7309 425.88 37.2509V70.2209C425.88 71.7409 427.11 72.9709 428.63 72.9709C430.15 72.9709 431.38 71.7409 431.38 70.2209V52.0309C431.38 43.8709 434.08 40.0009 442.23 39.9909C443.57 39.9509 444.99 38.8009 445.01 37.2809C445.03 35.7609 443.82 34.5009 442.3 34.5009Z" fill="white"/>
<path d="M140.84 72.9608C139.69 72.9608 138.66 72.2408 138.26 71.1508L128.85 45.3708L119.67 71.1308C119.28 72.2208 118.32 73.1908 117.08 72.9508C115.93 72.9508 114.9 72.2308 114.5 71.1408L102.47 38.1808C101.95 36.7608 102.68 35.1808 104.11 34.6608C105.54 34.1408 107.11 34.8808 107.63 36.3008L117.05 62.1108L126.13 36.6508C126.27 36.0108 126.64 35.4308 127.19 35.0308C128.17 34.3108 129.52 34.3208 130.49 35.0708C130.96 35.4308 131.3 35.9308 131.46 36.4808L140.81 62.1108L150 36.3408C150.51 34.9108 152.07 34.1708 153.51 34.6708C154.94 35.1808 155.68 36.7508 155.17 38.1808L143.42 71.1308C143.03 72.2208 141.93 73.1908 140.83 72.9508L140.84 72.9608Z" fill="white"/>
<path d="M180.81 34.4909C176.48 34.4909 172.95 35.7109 170.21 37.9809V20.7609C170.21 19.2409 168.98 18.0109 167.46 18.0109C165.94 18.0109 164.71 19.2409 164.71 20.7609V70.2109C164.71 71.7309 165.94 72.9609 167.46 72.9609C168.98 72.9609 170.21 71.7309 170.21 70.2109V49.7609C170.21 48.7609 170.59 39.9809 180.81 39.9809C189.9 39.9809 190.25 48.5309 190.26 49.5009V70.2109C190.26 71.7309 191.49 72.9609 193.01 72.9609C194.53 72.9609 195.76 71.7309 195.76 70.2109V49.5009C195.76 44.3109 192.64 34.4909 180.82 34.4909H180.81Z" fill="white"/>
<path d="M269.47 67.4709C264.83 67.4709 263.02 65.4309 263.02 60.2109V39.9909H269.47C270.99 39.9909 272.22 38.7609 272.22 37.2409C272.22 35.7209 270.99 34.4909 269.47 34.4909H263.02V28.5109C263.02 26.9909 261.79 25.7609 260.27 25.7609C258.75 25.7609 257.52 26.9909 257.52 28.5109V34.4909H253.22C251.7 34.4909 250.47 35.7209 250.47 37.2409C250.47 38.7609 251.7 39.9909 253.22 39.9909H257.52V60.2109C257.52 71.3109 265 72.9709 269.46 72.9709C270.98 72.9709 272.21 71.7409 272.21 70.2209C272.21 68.7009 270.98 67.4709 269.46 67.4709H269.47Z" fill="white"/>
<path d="M295.96 74.2609C288.43 74.2609 282.1 68.3809 281.55 60.8709C281.44 59.3609 282.58 58.0409 284.09 57.9309C285.57 57.7909 286.92 58.9609 287.03 60.4709C287.37 65.1209 291.29 68.7609 295.96 68.7609C300.9 68.7609 304.91 64.7409 304.91 59.8109C304.91 54.8809 300.89 50.8609 295.96 50.8609C294.44 50.8609 293.21 49.6309 293.21 48.1109C293.21 46.5909 294.44 45.3609 295.96 45.3609C300.03 45.3609 303.33 42.0509 303.33 37.9909C303.33 33.9309 300.02 30.6209 295.96 30.6209C292.12 30.6209 288.89 33.6209 288.61 37.4509C288.5 38.9609 287.16 40.1009 285.67 39.9909C284.16 39.8809 283.02 38.5709 283.13 37.0509C283.62 30.3609 289.25 25.1309 295.96 25.1309C303.05 25.1309 308.83 30.9009 308.83 37.9909C308.83 41.9809 307.01 45.5509 304.15 47.9109C307.93 50.5209 310.41 54.8809 310.41 59.8109C310.41 67.7809 303.93 74.2609 295.96 74.2609Z" fill="white"/>
<path d="M357.19 72.9609C356.04 72.9609 355.01 72.2408 354.61 71.1508L345.2 45.3708L336.02 71.1309C335.63 72.2209 334.6 72.9509 333.44 72.9509H333.43C332.28 72.9509 331.25 72.2309 330.85 71.1409L318.82 38.1808C318.3 36.7608 319.03 35.1809 320.46 34.6609C321.89 34.1409 323.46 34.8708 323.98 36.3008L333.4 62.1108L342.48 36.6508C342.62 36.0108 342.99 35.4309 343.54 35.0309C344.53 34.3109 345.87 34.3209 346.84 35.0709C347.31 35.4309 347.65 35.9308 347.81 36.4808L357.16 62.1108L366.35 36.3409C366.86 34.9109 368.42 34.1709 369.86 34.6709C371.29 35.1809 372.03 36.7508 371.52 38.1808L359.77 71.1309C359.38 72.2209 358.35 72.9509 357.19 72.9509H357.18L357.19 72.9609Z" fill="white"/>
<path d="M397.13 72.9609C386.53 72.9609 377.9 64.3309 377.9 53.7309C377.9 43.1309 386.53 34.5009 397.13 34.5009C407.73 34.5009 416.36 43.1309 416.36 53.7309C416.36 64.3309 407.73 72.9609 397.13 72.9609ZM397.13 40.0009C389.56 40.0009 383.4 46.1609 383.4 53.7309C383.4 61.3009 389.56 67.4609 397.13 67.4609C404.7 67.4609 410.86 61.3009 410.86 53.7309C410.86 46.1609 404.7 40.0009 397.13 40.0009Z" fill="white"/>
<path d="M484.2 18.0109C482.68 18.0109 481.45 19.2409 481.45 20.7609V40.0409C478.14 36.6309 473.61 34.5109 468.62 34.5109C458.52 34.5109 450.29 43.1409 450.29 53.7409C450.29 64.3409 458.51 72.9709 468.62 72.9709C473.62 72.9709 478.14 70.8509 481.45 67.4409V70.2309C481.45 71.7509 482.68 72.9809 484.2 72.9809C485.72 72.9809 486.95 71.7509 486.95 70.2309V20.7809C486.95 19.2609 485.72 18.0309 484.2 18.0309V18.0109ZM468.62 67.4709C461.54 67.4709 455.79 61.3109 455.79 53.7409C455.79 46.1709 461.55 40.0109 468.62 40.0109C475.69 40.0109 481.45 46.1709 481.45 53.7409C481.45 61.3109 475.69 67.4709 468.62 67.4709Z" fill="white"/>
<path d="M238.26 34.5109C236.74 34.5109 235.51 35.7409 235.51 37.2609V40.0809C232.2 36.6409 227.65 34.5109 222.64 34.5109C212.54 34.5109 204.31 43.1409 204.31 53.7409C204.31 64.3409 212.53 72.9709 222.64 72.9709C227.66 72.9709 232.2 70.8409 235.51 67.4009C235.51 67.4009 235.71 66.8909 235.51 70.2209C235.51 71.7409 236.74 72.9709 238.26 72.9709C239.78 72.9709 241.01 71.7409 241.01 70.2209V37.2609C241.01 35.7409 239.78 34.5109 238.26 34.5109ZM222.64 67.4709C215.56 67.4709 209.81 61.3109 209.81 53.7409C209.81 46.1709 215.57 40.0109 222.64 40.0109C229.71 40.0109 235.47 46.1709 235.47 53.7409C235.47 61.3109 229.71 67.4709 222.64 67.4709Z" fill="white"/>
<path d="M509.78 72.9409C504.06 72.9409 499.34 70.4809 496.83 66.1809C496.09 64.9109 496.42 63.2109 497.56 62.3809C498.71 61.5609 500.24 61.9209 500.99 63.2009C502.57 65.9009 506.24 67.9109 509.81 67.9109C514.4 67.9109 517.32 65.9709 517.32 62.8809C517.32 59.7909 513.95 58.4809 508.83 56.1309C503.07 53.4809 497.47 51.6109 497.37 44.6409C497.3 39.9809 502.08 34.9509 509.36 34.5109C513.83 34.2309 518.23 35.9909 520.56 38.4909C521.54 39.5409 521.64 41.2509 520.72 42.3709C519.8 43.4909 518.3 43.5609 517.22 42.5509C511.54 37.2409 502.38 39.7409 502.38 44.6409C502.38 47.6109 506.57 49.2609 510.72 51.1209C514.77 52.9409 522.41 55.8009 522.41 62.8809C522.41 67.4509 518.43 72.9309 509.77 72.9309L509.78 72.9409Z" fill="white"/>
<path d="M665.83 88.3608H573.18C569.44 88.3608 565.8 87.6308 562.38 86.1808C559.08 84.7808 556.11 82.7809 553.56 80.2409C551.01 77.6909 549.01 74.7309 547.62 71.4209C546.17 68.0009 545.44 64.3708 545.44 60.6208V46.8608C545.44 43.1208 546.17 39.4809 547.62 36.0609C549.02 32.7609 551.02 29.7909 553.56 27.2409C556.11 24.6909 559.07 22.6908 562.38 21.3008C565.8 19.8508 569.43 19.1208 573.18 19.1208H666.96V21.9909H573.18C559.47 21.9909 548.31 33.1508 548.31 46.8608V60.6208C548.31 74.3308 559.47 85.4909 573.18 85.4909H665.83C679.54 85.4909 690.7 74.3308 690.7 60.6208V45.4809H693.57V60.6208C693.57 64.3609 692.84 68.0009 691.39 71.4209C689.99 74.7209 687.99 77.6909 685.45 80.2409C682.9 82.7909 679.94 84.7908 676.63 86.1808C673.21 87.6308 669.58 88.3608 665.83 88.3608Z" fill="white"/>
<path d="M568.21 34.5309H580.98C589.92 34.5309 596.65 37.5209 596.65 46.4409C596.65 55.3609 589.93 58.8809 581.23 58.8809H575.55V72.9009H568.21V34.5209V34.5309ZM580.67 53.3109C586.59 53.3109 589.37 51.0809 589.37 46.4409C589.37 41.8009 586.29 40.1009 580.43 40.1009H575.56V53.3009H580.68L580.67 53.3109Z" fill="white"/>
<path d="M602.44 34.5309H616.07C624.52 34.5309 631 37.3509 631 45.9709C631 51.7809 627.85 55.3609 623.04 56.9409L632.6 72.9009H624.4L615.76 58.0009H609.78V72.9009H602.44V34.5209V34.5309ZM615.33 52.4309C620.82 52.4309 623.78 50.2609 623.78 45.9809C623.78 41.7009 620.82 40.1109 615.33 40.1109H609.78V52.4309H615.33Z" fill="white"/>
<path d="M635.82 53.5409C635.82 41.1609 643.69 33.8209 655.1 33.8209C666.51 33.8209 674.38 41.1609 674.38 53.5409C674.38 65.9209 666.51 73.6109 655.1 73.6109C643.69 73.6109 635.82 65.9809 635.82 53.5409ZM667 53.5409C667 45.0309 662.3 39.9309 655.1 39.9309C647.9 39.9309 643.2 45.0409 643.2 53.5409C643.2 62.0409 647.83 67.5609 655.1 67.5609C662.37 67.5609 667 62.1009 667 53.5409Z" fill="white"/>
<path d="M691.59 1.00085L689.92 5.45086C687.68 11.4309 682.94 16.1409 676.94 18.3309L672.36 20.0009C671.85 20.1909 671.85 20.9109 672.36 21.0909L676.94 22.7609C682.94 24.9509 687.68 29.6609 689.92 35.6409L691.59 40.0909C691.78 40.5909 692.49 40.5909 692.68 40.0909L694.35 35.6409C696.59 29.6609 701.33 24.9509 707.33 22.7609L711.91 21.0909C712.42 20.9009 712.42 20.1809 711.91 20.0009L707.33 18.3309C701.33 16.1409 696.59 11.4309 694.35 5.45086L692.68 1.00085C692.49 0.500854 691.78 0.500854 691.59 1.00085Z" fill="#E11F26"/>
</svg>
