<svg width="167" height="89" viewBox="0 0 167 89" fill="none" xmlns="http://www.w3.org/2000/svg">
<path d="M124.298 88.3059H28.6404C24.779 88.3059 21.0208 87.5759 17.4898 86.1259C14.0827 84.7259 11.0163 82.7259 8.38355 80.1859C5.75079 77.6359 3.68587 74.6759 2.25076 71.3659C0.753694 67.9459 0 64.3159 0 60.5659V46.8059C0 43.0659 0.753694 39.4259 2.25076 36.0059C3.6962 32.7059 5.76111 29.7359 8.38355 27.1859C11.0163 24.6359 14.0724 22.6359 17.4898 21.2459C21.0208 19.7959 24.7687 19.0659 28.6404 19.0659H130.781V21.9359H28.6404C14.4854 21.9359 2.96315 33.0959 2.96315 46.8059V60.5659C2.96315 74.2759 14.4854 85.4359 28.6404 85.4359H124.298C138.453 85.4359 149.975 74.2759 149.975 60.5659V45.4259H152.938V60.5659C152.938 64.3059 152.184 67.9459 150.687 71.3659C149.242 74.6659 147.177 77.6359 144.554 80.1859C141.922 82.7359 138.866 84.7359 135.448 86.1259C131.917 87.5759 128.169 88.3059 124.298 88.3059Z" fill="#0A3049"/>
<path d="M23.5193 34.4759H36.7038C45.9339 34.4759 52.8824 37.4659 52.8824 46.3859C52.8824 55.3059 45.9443 58.8259 36.9619 58.8259H31.0975V72.8459H23.5193V34.4659V34.4759ZM36.3837 53.2559C42.4959 53.2559 45.3661 51.0259 45.3661 46.3859C45.3661 41.7459 42.1861 40.0459 36.1359 40.0459H31.1078V53.2459H36.394L36.3837 53.2559Z" fill="#0A3049"/>
<path d="M58.8604 34.4759H72.9327C81.657 34.4759 88.3473 37.2959 88.3473 45.9159C88.3473 51.7259 85.0951 55.3059 80.129 56.8859L89.9993 72.8459H81.5331L72.6127 57.9459H66.4386V72.8459H58.8604V34.4659V34.4759ZM72.1687 52.3759C77.8369 52.3759 80.893 50.2059 80.893 45.9259C80.893 41.6459 77.8369 40.0559 72.1687 40.0559H66.4386V52.3759H72.1687Z" fill="#0A3049"/>
<path d="M93.3237 53.4859C93.3237 41.1059 101.449 33.7659 113.23 33.7659C125.01 33.7659 133.135 41.1059 133.135 53.4859C133.135 65.8659 125.01 73.5559 113.23 73.5559C101.449 73.5559 93.3237 65.9259 93.3237 53.4859ZM125.516 53.4859C125.516 44.9759 120.663 39.8759 113.23 39.8759C105.796 39.8759 100.943 44.9859 100.943 53.4859C100.943 61.9859 105.724 67.5059 113.23 67.5059C120.735 67.5059 125.516 62.0459 125.516 53.4859Z" fill="#0A3049"/>
<path d="M139.795 40.4759C138.721 40.4759 137.812 40.1059 137.048 39.3659C136.284 38.6259 135.902 37.7459 135.902 36.7059V17.8859C135.902 16.8459 136.284 15.9659 137.048 15.2259C137.812 14.4859 138.721 14.1159 139.795 14.1159H141.736V10.3559C141.736 7.75586 142.686 5.53586 144.575 3.69586C146.475 1.85586 148.756 0.945862 151.451 0.945862C154.146 0.945862 156.428 1.86586 158.327 3.69586C160.227 5.53586 161.167 7.74586 161.167 10.3559V14.1159H163.108C164.181 14.1159 165.09 14.4859 165.854 15.2259C166.618 15.9659 167 16.8459 167 17.8859V36.7059C167 37.7459 166.618 38.6259 165.854 39.3659C165.09 40.1059 164.181 40.4759 163.108 40.4759H139.784H139.795ZM145.628 14.1259H157.285V10.3659C157.285 8.79586 156.717 7.46586 155.581 6.36586C154.445 5.26586 153.072 4.71586 151.451 4.71586C149.83 4.71586 148.457 5.26586 147.321 6.36586C146.186 7.46586 145.618 8.79586 145.618 10.3659V14.1259H145.628Z" fill="#E11F26"/>
<path d="M159.04 27.5059L157.285 28.1259C154.982 28.9359 153.165 30.6859 152.308 32.9059L151.668 34.5559C151.596 34.7459 151.327 34.7459 151.255 34.5559L150.615 32.9059C149.758 30.6859 147.941 28.9359 145.638 28.1259L143.883 27.5059C143.687 27.4359 143.687 27.1659 143.883 27.0959L145.638 26.4759C147.941 25.6659 149.758 23.9159 150.615 21.6959L151.255 20.0459C151.327 19.8559 151.596 19.8559 151.668 20.0459L152.308 21.6959C153.165 23.9159 154.982 25.6659 157.285 26.4759L159.04 27.0959C159.236 27.1659 159.236 27.4359 159.04 27.5059Z" fill="white"/>
</svg>
