<svg width="24" height="24" viewBox="0 0 24 24" fill="none" xmlns="http://www.w3.org/2000/svg">
<path fill-rule="evenodd" clip-rule="evenodd" d="M15.2381 11.5952V7.54762C15.2381 5.75927 13.7883 4.30952 12 4.30952C10.2116 4.30952 8.76188 5.75927 8.76188 7.54762V11.5952C8.76188 13.3836 10.2116 14.8333 12 14.8333C13.7883 14.8333 15.2381 13.3836 15.2381 11.5952ZM12 3.5C9.76453 3.5 7.95235 5.31218 7.95235 7.54762V11.5952C7.95235 13.8307 9.76453 15.6429 12 15.6429C14.2354 15.6429 16.0476 13.8307 16.0476 11.5952V7.54762C16.0476 5.31218 14.2354 3.5 12 3.5ZM11.1717 11.2214C11.1967 11.2746 11.2372 11.3192 11.2879 11.3497C11.3386 11.3802 11.3973 11.395 11.4566 11.3925C11.5159 11.3899 11.5731 11.3701 11.621 11.3354C11.6688 11.3007 11.7052 11.2527 11.7254 11.1976L12.8455 8.15922C12.861 8.12235 12.8687 8.08276 12.8683 8.04285C12.8678 8.00293 12.8592 7.96352 12.843 7.92697C12.8267 7.89043 12.8032 7.85751 12.7737 7.83019C12.7442 7.80287 12.7095 7.78172 12.6715 7.76801C12.6336 7.7543 12.5932 7.74831 12.5528 7.75041C12.5125 7.75251 12.4729 7.76265 12.4367 7.78022C12.4004 7.79779 12.368 7.82242 12.3416 7.85265C12.3152 7.88287 12.2953 7.91805 12.283 7.95608L11.1621 10.9953C11.1485 11.0317 11.1424 11.0705 11.144 11.1093C11.1457 11.1481 11.1551 11.1862 11.1717 11.2214ZM9.76223 11.3746C9.7992 11.3881 9.83852 11.3942 9.8779 11.3926C9.91728 11.391 9.95595 11.3817 9.99167 11.3653C10.0274 11.3488 10.0594 11.3255 10.086 11.2967C10.1125 11.268 10.133 11.2343 10.1463 11.1976L11.264 8.15924C11.2838 8.08747 11.2757 8.01098 11.2411 7.94489C11.2065 7.87881 11.1481 7.82796 11.0773 7.80241C11.0066 7.77687 10.9287 7.77848 10.8591 7.80694C10.7895 7.8354 10.7333 7.88863 10.7016 7.95609L9.58144 10.9961C9.56788 11.0326 9.56176 11.0714 9.56344 11.1103C9.56511 11.1491 9.57454 11.1873 9.5912 11.2225C9.60785 11.2578 9.63139 11.2894 9.66046 11.3157C9.68954 11.3419 9.72358 11.3622 9.76063 11.3754L9.76223 11.3746ZM12.8193 11.3146C12.7903 11.2883 12.7669 11.2567 12.7503 11.2214C12.7332 11.1866 12.7231 11.1488 12.7208 11.1101C12.7184 11.0714 12.7238 11.0327 12.7367 10.9961L13.8616 7.95608C13.8739 7.91805 13.8938 7.88287 13.9202 7.85265C13.9466 7.82242 13.979 7.79779 14.0152 7.78022C14.0515 7.76265 14.0911 7.75251 14.1314 7.75041C14.1718 7.74831 14.2122 7.7543 14.2501 7.76801C14.2881 7.78172 14.3228 7.80287 14.3523 7.83019C14.3818 7.85751 14.4053 7.89043 14.4216 7.92697C14.4378 7.96352 14.4464 8.00293 14.4469 8.04285C14.4473 8.08276 14.4395 8.12235 14.4241 8.15922L13.304 11.1976C13.2829 11.2548 13.2445 11.3042 13.1941 11.3391C13.1436 11.374 13.0835 11.3928 13.0219 11.3928C12.9868 11.3926 12.952 11.3865 12.9191 11.3746C12.8821 11.3613 12.8482 11.3409 12.8193 11.3146ZM11.9999 17.2619C8.93413 17.2619 6.44885 15.0872 6.44885 12.4047V11.2483C6.44885 10.9928 6.24175 10.7857 5.98627 10.7857C5.73079 10.7857 5.52368 10.9928 5.52368 11.2483V12.4047C5.52368 15.4154 8.20691 17.8776 11.595 18.0605V19.6905H9.97597C9.75242 19.6905 9.5712 19.8717 9.5712 20.0952C9.5712 20.3188 9.75242 20.5 9.97597 20.5H14.0236C14.2471 20.5 14.4283 20.3188 14.4283 20.0952C14.4283 19.8717 14.2471 19.6905 14.0236 19.6905H12.4045V18.0605C15.7927 17.8777 18.4761 15.4154 18.4761 12.4047V11.2483C18.4761 10.9928 18.269 10.7857 18.0135 10.7857C17.758 10.7857 17.5509 10.9928 17.5509 11.2483V12.4047C17.5509 15.0872 15.0656 17.2619 11.9999 17.2619Z" fill="#007AFF"/>
<path d="M11.2879 11.3497L11.2149 11.4712L11.2149 11.4712L11.2879 11.3497ZM11.1717 11.2214L11.3 11.1612L11.2998 11.1609L11.1717 11.2214ZM11.4566 11.3925L11.4627 11.534H11.4627L11.4566 11.3925ZM11.621 11.3354L11.7041 11.4501L11.7041 11.4501L11.621 11.3354ZM11.7254 11.1976L11.5925 11.1486L11.5924 11.1488L11.7254 11.1976ZM12.8455 8.15922L12.7147 8.10439L12.7126 8.11022L12.8455 8.15922ZM12.8683 8.04285L12.7266 8.04437V8.04437L12.8683 8.04285ZM12.843 7.92697L12.9724 7.86941L12.9724 7.86941L12.843 7.92697ZM12.5528 7.75041L12.5455 7.60894H12.5455L12.5528 7.75041ZM12.4367 7.78022L12.3749 7.65271L12.3749 7.65271L12.4367 7.78022ZM12.3416 7.85265L12.4483 7.94585L12.4483 7.94585L12.3416 7.85265ZM12.283 7.95608L12.4161 8.00515L12.4178 7.9996L12.283 7.95608ZM11.1621 10.9953L11.2949 11.0447L11.295 11.0443L11.1621 10.9953ZM11.144 11.1093L11.2856 11.1033V11.1033L11.144 11.1093ZM9.8779 11.3926L9.87214 11.2511H9.87214L9.8779 11.3926ZM9.76223 11.3746L9.81083 11.2415L9.75389 11.2207L9.69953 11.2476L9.76223 11.3746ZM10.086 11.2967L9.98187 11.2007L9.98187 11.2007L10.086 11.2967ZM10.1463 11.1976L10.0134 11.1487L10.0131 11.1494L10.1463 11.1976ZM11.264 8.15924L11.3974 8.20831L11.4006 8.19695L11.264 8.15924ZM11.2411 7.94489L11.1156 8.01057V8.01057L11.2411 7.94489ZM11.0773 7.80241L11.0292 7.93566H11.0292L11.0773 7.80241ZM10.8591 7.80694L10.9127 7.93807H10.9127L10.8591 7.80694ZM10.7016 7.95609L10.5729 7.89556L10.5686 7.90711L10.7016 7.95609ZM9.58144 10.9961L9.71425 11.0454L9.71437 11.0451L9.58144 10.9961ZM9.56344 11.1103L9.4219 11.1164L9.56344 11.1103ZM9.5912 11.2225L9.71929 11.162L9.71929 11.162L9.5912 11.2225ZM9.66046 11.3157L9.56556 11.4208L9.56557 11.4208L9.66046 11.3157ZM9.76063 11.3754L9.71308 11.5088L9.76956 11.529L9.82333 11.5024L9.76063 11.3754ZM12.7503 11.2214L12.8786 11.1612L12.8774 11.1588L12.7503 11.2214ZM12.8193 11.3146L12.724 11.4195L12.724 11.4195L12.8193 11.3146ZM12.7208 11.1101L12.5794 11.1187L12.7208 11.1101ZM12.7367 10.9961L12.6038 10.9469L12.603 10.9491L12.7367 10.9961ZM13.8616 7.95608L13.9946 8.00529L13.9964 7.99961L13.8616 7.95608ZM13.9202 7.85265L14.0269 7.94585L14.0269 7.94585L13.9202 7.85265ZM14.1314 7.75041L14.1241 7.60894L14.1314 7.75041ZM14.4216 7.92697L14.551 7.86941L14.551 7.86941L14.4216 7.92697ZM14.4469 8.04285L14.5885 8.04133V8.04132L14.4469 8.04285ZM14.4241 8.15922L14.2933 8.10439L14.2912 8.11022L14.4241 8.15922ZM13.304 11.1976L13.4369 11.2467L13.4369 11.2466L13.304 11.1976ZM13.1941 11.3391L13.1134 11.2226L13.1134 11.2226L13.1941 11.3391ZM13.0219 11.3928L13.0211 11.5345L13.0221 11.5345L13.0219 11.3928ZM12.9191 11.3746L12.8711 11.5079L12.8711 11.5079L12.9191 11.3746ZM11.595 18.0605H11.7367V17.9263L11.6026 17.919L11.595 18.0605ZM11.595 19.6905V19.8321H11.7367V19.6905H11.595ZM12.4045 19.6905H12.2629V19.8321H12.4045V19.6905ZM12.4045 18.0605L12.3969 17.919L12.2629 17.9263V18.0605H12.4045ZM15.0964 7.54762V11.5952H15.3797V7.54762H15.0964ZM12 4.45119C13.7101 4.45119 15.0964 5.83751 15.0964 7.54762H15.3797C15.3797 5.68103 13.8666 4.16786 12 4.16786V4.45119ZM8.90354 7.54762C8.90354 5.83751 10.2899 4.45119 12 4.45119V4.16786C10.1334 4.16786 8.62021 5.68103 8.62021 7.54762H8.90354ZM8.90354 11.5952V7.54762H8.62021V11.5952H8.90354ZM12 14.6917C10.2899 14.6917 8.90354 13.3054 8.90354 11.5952H8.62021C8.62021 13.4618 10.1334 14.975 12 14.975V14.6917ZM15.0964 11.5952C15.0964 13.3054 13.7101 14.6917 12 14.6917V14.975C13.8666 14.975 15.3797 13.4618 15.3797 11.5952H15.0964ZM8.09402 7.54762C8.09402 5.39042 9.84278 3.64167 12 3.64167V3.35833C9.68629 3.35833 7.81069 5.23394 7.81069 7.54762H8.09402ZM8.09402 11.5952V7.54762H7.81069V11.5952H8.09402ZM12 15.5012C9.84278 15.5012 8.09402 13.7524 8.09402 11.5952H7.81069C7.81069 13.9089 9.68629 15.7845 12 15.7845V15.5012ZM15.9059 11.5952C15.9059 13.7524 14.1572 15.5012 12 15.5012V15.7845C14.3137 15.7845 16.1893 13.9089 16.1893 11.5952H15.9059ZM15.9059 7.54762V11.5952H16.1893V7.54762H15.9059ZM12 3.64167C14.1572 3.64167 15.9059 5.39042 15.9059 7.54762H16.1893C16.1893 5.23394 14.3137 3.35833 12 3.35833V3.64167ZM11.3608 11.2282C11.334 11.2121 11.3129 11.1887 11.3 11.1612L11.0435 11.2817C11.0806 11.3605 11.1403 11.4263 11.2149 11.4712L11.3608 11.2282ZM11.4505 11.251C11.4189 11.2523 11.3876 11.2444 11.3608 11.2282L11.2149 11.4712C11.2896 11.5159 11.3758 11.5378 11.4627 11.534L11.4505 11.251ZM11.5378 11.2207C11.5126 11.239 11.4822 11.2496 11.4505 11.251L11.4627 11.534C11.5497 11.5303 11.6337 11.5011 11.7041 11.4501L11.5378 11.2207ZM11.5924 11.1488C11.5819 11.1773 11.563 11.2024 11.5378 11.2207L11.7041 11.4501C11.7746 11.399 11.8284 11.3282 11.8584 11.2464L11.5924 11.1488ZM12.7126 8.11022L11.5925 11.1486L11.8583 11.2466L12.9784 8.20823L12.7126 8.11022ZM12.7266 8.04437C12.7268 8.06493 12.7228 8.08536 12.7148 8.10444L12.9761 8.214C12.9991 8.15933 13.0106 8.10059 13.0099 8.04132L12.7266 8.04437ZM12.7136 7.98454C12.722 8.00346 12.7264 8.02381 12.7266 8.04437L13.0099 8.04133C13.0093 7.98206 12.9965 7.92358 12.9724 7.86941L12.7136 7.98454ZM12.6774 7.93408C12.6929 7.94843 12.7051 7.96561 12.7136 7.98454L12.9724 7.86941C12.9484 7.81525 12.9135 7.76659 12.87 7.7263L12.6774 7.93408ZM12.6234 7.90125C12.6436 7.90854 12.6619 7.91973 12.6774 7.93408L12.87 7.7263C12.8266 7.686 12.7754 7.6549 12.7196 7.63477L12.6234 7.90125ZM12.5602 7.89189C12.5817 7.89077 12.6032 7.89397 12.6234 7.90125L12.7196 7.63477C12.6639 7.61463 12.6047 7.60586 12.5455 7.60894L12.5602 7.89189ZM12.4984 7.90773C12.5176 7.89841 12.5386 7.89301 12.5602 7.89189L12.5455 7.60894C12.4863 7.61201 12.4283 7.62688 12.3749 7.65271L12.4984 7.90773ZM12.4483 7.94585C12.4621 7.93004 12.4791 7.91704 12.4984 7.90773L12.3749 7.65271C12.3216 7.67853 12.2739 7.71481 12.235 7.75945L12.4483 7.94585ZM12.4178 7.9996C12.4242 7.97995 12.4345 7.96165 12.4483 7.94585L12.235 7.75944C12.196 7.80409 12.1664 7.85616 12.1482 7.91256L12.4178 7.9996ZM11.295 11.0443L12.4159 8.0051L12.1501 7.90706L11.0292 10.9463L11.295 11.0443ZM11.2856 11.1033C11.2847 11.0834 11.2879 11.0635 11.2949 11.0447L11.0294 10.9458C11.0092 11 11 11.0576 11.0025 11.1153L11.2856 11.1033ZM11.2998 11.1609C11.2913 11.1428 11.2864 11.1232 11.2856 11.1033L11.0025 11.1153C11.005 11.1731 11.019 11.2297 11.0437 11.282L11.2998 11.1609ZM9.87214 11.2511C9.85123 11.2519 9.83038 11.2487 9.81083 11.2415L9.71364 11.5077C9.76802 11.5275 9.8258 11.5365 9.88365 11.5342L9.87214 11.2511ZM9.93239 11.2366C9.91353 11.2453 9.89304 11.2502 9.87214 11.2511L9.88365 11.5342C9.94151 11.5318 9.99837 11.5182 10.0509 11.4939L9.93239 11.2366ZM9.98187 11.2007C9.96804 11.2157 9.95124 11.2279 9.93239 11.2366L10.0509 11.4939C10.1035 11.4697 10.1509 11.4354 10.1901 11.3928L9.98187 11.2007ZM10.0131 11.1494C10.0063 11.1682 9.9957 11.1857 9.98187 11.2007L10.1901 11.3928C10.2294 11.3503 10.2598 11.3003 10.2795 11.2459L10.0131 11.1494ZM11.1311 8.11033L10.0134 11.1487L10.2793 11.2465L11.397 8.20814L11.1311 8.11033ZM11.1156 8.01057C11.1335 8.0449 11.1377 8.08444 11.1275 8.12152L11.4006 8.19695C11.43 8.0905 11.4178 7.97705 11.3666 7.87921L11.1156 8.01057ZM11.0292 7.93566C11.0669 7.94927 11.0976 7.97619 11.1156 8.01057L11.3666 7.87921C11.3154 7.78143 11.2292 7.70665 11.1254 7.66917L11.0292 7.93566ZM10.9127 7.93807C10.9498 7.9229 10.9914 7.92202 11.0292 7.93566L11.1254 7.66917C11.0217 7.63171 10.9076 7.63407 10.8055 7.67582L10.9127 7.93807ZM10.8297 8.0164C10.8462 7.98135 10.8757 7.95322 10.9127 7.93807L10.8055 7.67582C10.7034 7.71759 10.6204 7.79591 10.5734 7.89579L10.8297 8.0164ZM9.71437 11.0451L10.8345 8.00507L10.5686 7.90711L9.44851 10.9471L9.71437 11.0451ZM9.70497 11.1042C9.70411 11.0842 9.70725 11.0642 9.71425 11.0454L9.44863 10.9468C9.42851 11.001 9.41941 11.0586 9.4219 11.1164L9.70497 11.1042ZM9.71929 11.162C9.71068 11.1438 9.70583 11.1241 9.70497 11.1042L9.4219 11.1164C9.42439 11.1741 9.43841 11.2308 9.4631 11.283L9.71929 11.162ZM9.75536 11.2105C9.74013 11.1967 9.7279 11.1802 9.71929 11.162L9.4631 11.283C9.48779 11.3353 9.52264 11.3821 9.56556 11.4208L9.75536 11.2105ZM9.80818 11.2419C9.78854 11.2349 9.77061 11.2242 9.75536 11.2105L9.56557 11.4208C9.60848 11.4596 9.65862 11.4894 9.71308 11.5088L9.80818 11.2419ZM9.69953 11.2476L9.69792 11.2484L9.82333 11.5024L9.82494 11.5016L9.69953 11.2476ZM12.6221 11.2816C12.6466 11.3339 12.6813 11.3807 12.724 11.4195L12.9145 11.2097C12.8993 11.196 12.8871 11.1795 12.8786 11.1612L12.6221 11.2816ZM12.5794 11.1187C12.5828 11.1762 12.5978 11.2324 12.6233 11.2841L12.8774 11.1588C12.8685 11.1408 12.8634 11.1214 12.8622 11.1015L12.5794 11.1187ZM12.603 10.9491C12.5839 11.0035 12.5759 11.0611 12.5794 11.1187L12.8622 11.1015C12.861 11.0817 12.8637 11.0618 12.8703 11.043L12.603 10.9491ZM13.7288 7.90692L12.6038 10.9469L12.8695 11.0452L13.9945 8.00525L13.7288 7.90692ZM13.8135 7.75944C13.7745 7.80409 13.745 7.85616 13.7268 7.91256L13.9964 7.99961C14.0028 7.97995 14.0131 7.96165 14.0269 7.94585L13.8135 7.75944ZM13.9535 7.65271C13.9002 7.67853 13.8525 7.71481 13.8135 7.75945L14.0269 7.94585C14.0407 7.93004 14.0577 7.91704 14.077 7.90773L13.9535 7.65271ZM14.1241 7.60894C14.0649 7.61201 14.0069 7.62688 13.9535 7.65271L14.077 7.90773C14.0962 7.89841 14.1172 7.89301 14.1388 7.89189L14.1241 7.60894ZM14.2982 7.63477C14.2425 7.61463 14.1833 7.60586 14.1241 7.60894L14.1388 7.89189C14.1603 7.89077 14.1818 7.89397 14.202 7.90125L14.2982 7.63477ZM14.4486 7.7263C14.4051 7.686 14.354 7.6549 14.2982 7.63477L14.202 7.90125C14.2222 7.90854 14.2405 7.91974 14.256 7.93408L14.4486 7.7263ZM14.551 7.86941C14.5269 7.81526 14.4921 7.76659 14.4486 7.7263L14.256 7.93408C14.2715 7.94842 14.2837 7.9656 14.2921 7.98454L14.551 7.86941ZM14.5885 8.04132C14.5879 7.98206 14.5751 7.92358 14.551 7.86941L14.2921 7.98454C14.3006 8.00346 14.305 8.02381 14.3052 8.04437L14.5885 8.04132ZM14.5547 8.214C14.5777 8.15933 14.5892 8.10059 14.5885 8.04133L14.3052 8.04437C14.3054 8.06493 14.3014 8.08536 14.2934 8.10444L14.5547 8.214ZM13.4369 11.2466L14.557 8.20823L14.2912 8.11022L13.171 11.1486L13.4369 11.2466ZM13.2747 11.4556C13.3489 11.4042 13.4056 11.3313 13.4369 11.2467L13.1711 11.1486C13.1601 11.1782 13.1401 11.2041 13.1134 11.2226L13.2747 11.4556ZM13.0221 11.5345C13.1123 11.5344 13.2005 11.5069 13.2747 11.4556L13.1134 11.2226C13.0867 11.2411 13.0547 11.2511 13.0218 11.2512L13.0221 11.5345ZM12.8711 11.5079C12.9192 11.5252 12.97 11.5342 13.0211 11.5345L13.0227 11.2512C13.0037 11.2511 12.9849 11.2477 12.9671 11.2413L12.8711 11.5079ZM12.724 11.4195C12.7668 11.4583 12.8168 11.4883 12.8711 11.5079L12.9671 11.2413C12.9475 11.2343 12.9296 11.2235 12.9145 11.2097L12.724 11.4195ZM6.30719 12.4047C6.30719 15.1827 8.87425 17.4035 11.9999 17.4035V17.1202C8.99401 17.1202 6.59052 14.9918 6.59052 12.4047H6.30719ZM6.30719 11.2483V12.4047H6.59052V11.2483H6.30719ZM5.98627 10.9273C6.16351 10.9273 6.30719 11.071 6.30719 11.2483H6.59052C6.59052 10.9145 6.31999 10.644 5.98627 10.644V10.9273ZM5.66535 11.2483C5.66535 11.071 5.80903 10.9273 5.98627 10.9273V10.644C5.65255 10.644 5.38201 10.9145 5.38201 11.2483H5.66535ZM5.66535 12.4047V11.2483H5.38201V12.4047H5.66535ZM11.6026 17.919C8.27234 17.7393 5.66535 15.3238 5.66535 12.4047H5.38201C5.38201 15.5069 8.14147 18.016 11.5874 18.202L11.6026 17.919ZM11.7367 19.6905V18.0605H11.4533V19.6905H11.7367ZM9.97597 19.8321H11.595V19.5488H9.97597V19.8321ZM9.71287 20.0952C9.71287 19.9499 9.83066 19.8321 9.97597 19.8321V19.5488C9.67418 19.5488 9.42954 19.7934 9.42954 20.0952H9.71287ZM9.97597 20.3583C9.83066 20.3583 9.71287 20.2405 9.71287 20.0952H9.42954C9.42954 20.397 9.67418 20.6416 9.97597 20.6416V20.3583ZM14.0236 20.3583H9.97597V20.6416H14.0236V20.3583ZM14.2867 20.0952C14.2867 20.2405 14.1689 20.3583 14.0236 20.3583V20.6416C14.3254 20.6416 14.57 20.397 14.57 20.0952H14.2867ZM14.0236 19.8321C14.1689 19.8321 14.2867 19.9499 14.2867 20.0952H14.57C14.57 19.7934 14.3254 19.5488 14.0236 19.5488V19.8321ZM12.4045 19.8321H14.0236V19.5488H12.4045V19.8321ZM12.2629 18.0605V19.6905H12.5462V18.0605H12.2629ZM18.3344 12.4047C18.3344 15.3239 15.7273 17.7394 12.3969 17.919L12.4122 18.202C15.8582 18.0161 18.6177 15.5069 18.6177 12.4047H18.3344ZM18.3344 11.2483V12.4047H18.6177V11.2483H18.3344ZM18.0135 10.9273C18.1907 10.9273 18.3344 11.071 18.3344 11.2483H18.6177C18.6177 10.9145 18.3472 10.644 18.0135 10.644V10.9273ZM17.6926 11.2483C17.6926 11.071 17.8362 10.9273 18.0135 10.9273V10.644C17.6798 10.644 17.4092 10.9145 17.4092 11.2483H17.6926ZM17.6926 12.4047V11.2483H17.4092V12.4047H17.6926ZM11.9999 17.4035C15.1255 17.4035 17.6926 15.1827 17.6926 12.4047H17.4092C17.4092 14.9918 15.0057 17.1202 11.9999 17.1202V17.4035Z" fill="#007AFF"/>
</svg>
