<svg width="14" height="18" viewBox="0 0 14 18" fill="none" xmlns="http://www.w3.org/2000/svg">
<path fill-rule="evenodd" clip-rule="evenodd" d="M10.2381 8.59524V4.54762C10.2381 2.75927 8.78833 1.30952 6.99997 1.30952C5.21162 1.30952 3.76188 2.75927 3.76188 4.54762V8.59524C3.76188 10.3836 5.21162 11.8333 6.99997 11.8333C8.78833 11.8333 10.2381 10.3836 10.2381 8.59524ZM6.99997 0.5C4.76453 0.5 2.95235 2.31218 2.95235 4.54762V8.59524C2.95235 10.8307 4.76453 12.6429 6.99997 12.6429C9.23541 12.6429 11.0476 10.8307 11.0476 8.59524V4.54762C11.0476 2.31218 9.23541 0.5 6.99997 0.5ZM6.17175 8.22144C6.19674 8.27461 6.23716 8.31924 6.28788 8.3497C6.33859 8.38015 6.39733 8.39505 6.45663 8.3925C6.51593 8.38995 6.57313 8.37006 6.62098 8.33537C6.66882 8.30068 6.70516 8.25274 6.72538 8.19763L7.84549 5.15922C7.86096 5.12235 7.8687 5.08276 7.86827 5.04285C7.86785 5.00293 7.85925 4.96352 7.843 4.92697C7.82675 4.89043 7.80317 4.85751 7.7737 4.83019C7.74424 4.80287 7.70948 4.78172 7.67152 4.76801C7.63356 4.7543 7.59318 4.74831 7.55282 4.75041C7.51246 4.75251 7.47295 4.76265 7.43665 4.78022C7.40036 4.79779 7.36804 4.82242 7.34164 4.85265C7.31524 4.88287 7.2953 4.91805 7.28303 4.95608L6.16211 7.99528C6.14852 8.03174 6.14238 8.0705 6.14404 8.10931C6.14569 8.14813 6.15511 8.18623 6.17175 8.22144ZM4.76223 8.3746C4.7992 8.3881 4.83852 8.39423 4.8779 8.39262C4.91728 8.39102 4.95595 8.38172 4.99167 8.36527C5.02739 8.34881 5.05945 8.32552 5.08599 8.29675C5.11254 8.26797 5.13304 8.23429 5.14632 8.19764L6.26402 5.15924C6.28384 5.08747 6.27565 5.01098 6.24108 4.94489C6.2065 4.87881 6.14806 4.82796 6.07732 4.80241C6.00658 4.77687 5.9287 4.77848 5.85911 4.80694C5.78952 4.8354 5.73329 4.88863 5.70156 4.95609L4.58144 7.99609C4.56788 8.0326 4.56176 8.07141 4.56344 8.11027C4.56511 8.14913 4.57454 8.18728 4.5912 8.22252C4.60785 8.25777 4.63139 8.28942 4.66046 8.31566C4.68954 8.34189 4.72358 8.36219 4.76063 8.37539L4.76223 8.3746ZM7.81925 8.31462C7.7903 8.28834 7.76688 8.25667 7.75034 8.22144C7.73316 8.18661 7.72311 8.14877 7.72076 8.1101C7.71842 8.07143 7.72383 8.03268 7.73668 7.99608L8.86162 4.95608C8.87389 4.91805 8.89383 4.88287 8.92023 4.85265C8.94663 4.82242 8.97895 4.79779 9.01524 4.78022C9.05154 4.76265 9.09105 4.75251 9.13141 4.75041C9.17178 4.74831 9.21215 4.7543 9.25011 4.76801C9.28807 4.78172 9.32283 4.80287 9.3523 4.83019C9.38177 4.85751 9.40534 4.89043 9.42159 4.92697C9.43784 4.96352 9.44644 5.00293 9.44687 5.04285C9.44729 5.08276 9.43955 5.12235 9.42408 5.15922L8.30397 8.19763C8.28289 8.25479 8.24452 8.30418 8.19407 8.33909C8.14363 8.37401 8.08353 8.39277 8.02193 8.39284C7.98684 8.39264 7.95204 8.38646 7.91908 8.37459C7.88213 8.36128 7.84821 8.3409 7.81925 8.31462ZM6.99988 14.2619C3.93413 14.2619 1.44885 12.0872 1.44885 9.40472V8.24825C1.44885 7.99278 1.24175 7.78567 0.986267 7.78567C0.730788 7.78567 0.523682 7.99278 0.523682 8.24825V9.40472C0.523682 12.4154 3.20691 14.8776 6.59501 15.0605V16.6905H4.97597C4.75242 16.6905 4.5712 16.8717 4.5712 17.0952C4.5712 17.3188 4.75242 17.5 4.97597 17.5H9.02359C9.24713 17.5 9.42835 17.3188 9.42835 17.0952C9.42835 16.8717 9.24713 16.6905 9.02359 16.6905H7.40454V15.0605C10.7927 14.8777 13.4761 12.4154 13.4761 9.40472V8.24825C13.4761 7.99278 13.269 7.78567 13.0135 7.78567C12.758 7.78567 12.5509 7.99278 12.5509 8.24825V9.40472C12.5509 12.0872 10.0656 14.2619 6.99988 14.2619Z" fill="#007AFF"/>
<path d="M6.28788 8.3497L6.21495 8.47115L6.21495 8.47115L6.28788 8.3497ZM6.17175 8.22144L6.29995 8.16116L6.29983 8.1609L6.17175 8.22144ZM6.45663 8.3925L6.46272 8.53403H6.46272L6.45663 8.3925ZM6.62098 8.33537L6.70414 8.45006L6.70414 8.45006L6.62098 8.33537ZM6.72538 8.19763L6.59246 8.14863L6.59238 8.14883L6.72538 8.19763ZM7.84549 5.15922L7.71472 5.10439L7.71257 5.11022L7.84549 5.15922ZM7.86827 5.04285L7.72662 5.04437V5.04437L7.86827 5.04285ZM7.843 4.92697L7.97244 4.86941L7.97244 4.86941L7.843 4.92697ZM7.55282 4.75041L7.54547 4.60894H7.54547L7.55282 4.75041ZM7.43665 4.78022L7.37493 4.65271L7.37492 4.65271L7.43665 4.78022ZM7.34164 4.85265L7.44833 4.94585L7.44833 4.94585L7.34164 4.85265ZM7.28303 4.95608L7.41605 5.00515L7.41784 4.9996L7.28303 4.95608ZM6.16211 7.99528L6.29486 8.04474L6.29502 8.0443L6.16211 7.99528ZM6.14404 8.10931L6.28558 8.10328V8.10328L6.14404 8.10931ZM4.8779 8.39262L4.87214 8.25108H4.87214L4.8779 8.39262ZM4.76223 8.3746L4.81083 8.24153L4.75389 8.22073L4.69953 8.24757L4.76223 8.3746ZM5.08599 8.29675L4.98187 8.20068L4.98187 8.20069L5.08599 8.29675ZM5.14632 8.19764L5.01336 8.14873L5.01313 8.14939L5.14632 8.19764ZM6.26402 5.15924L6.39744 5.20831L6.40058 5.19695L6.26402 5.15924ZM6.24108 4.94489L6.11555 5.01057V5.01057L6.24108 4.94489ZM6.07732 4.80241L6.02919 4.93566H6.02919L6.07732 4.80241ZM5.85911 4.80694L5.91274 4.93807H5.91274L5.85911 4.80694ZM5.70156 4.95609L5.57288 4.89556L5.56863 4.90711L5.70156 4.95609ZM4.58144 7.99609L4.71425 8.0454L4.71437 8.04506L4.58144 7.99609ZM4.56344 8.11027L4.4219 8.11636L4.56344 8.11027ZM4.5912 8.22252L4.71929 8.16201L4.71929 8.16201L4.5912 8.22252ZM4.66046 8.31566L4.56556 8.42084L4.56557 8.42084L4.66046 8.31566ZM4.76063 8.37539L4.71308 8.50884L4.76956 8.52897L4.82333 8.50243L4.76063 8.37539ZM7.75034 8.22144L7.8786 8.16122L7.87739 8.15877L7.75034 8.22144ZM7.81925 8.31462L7.72404 8.41952L7.72404 8.41952L7.81925 8.31462ZM7.72076 8.1101L7.57936 8.11867L7.72076 8.1101ZM7.73668 7.99608L7.6038 7.9469L7.60301 7.94915L7.73668 7.99608ZM8.86162 4.95608L8.9946 5.00529L8.99643 4.99961L8.86162 4.95608ZM8.92023 4.85265L9.02692 4.94585L9.02692 4.94585L8.92023 4.85265ZM9.13141 4.75041L9.12406 4.60894L9.13141 4.75041ZM9.42159 4.92697L9.55103 4.86941L9.55103 4.86941L9.42159 4.92697ZM9.44687 5.04285L9.58852 5.04133V5.04132L9.44687 5.04285ZM9.42408 5.15922L9.29331 5.10439L9.29116 5.11022L9.42408 5.15922ZM8.30397 8.19763L8.43688 8.24665L8.43689 8.24663L8.30397 8.19763ZM8.19407 8.33909L8.11345 8.2226L8.11345 8.2226L8.19407 8.33909ZM8.02193 8.39284L8.02111 8.53451L8.02209 8.5345L8.02193 8.39284ZM7.91908 8.37459L7.87106 8.50787L7.87107 8.50787L7.91908 8.37459ZM6.59501 15.0605H6.73668V14.9263L6.60265 14.919L6.59501 15.0605ZM6.59501 16.6905V16.8321H6.73668V16.6905H6.59501ZM7.40454 16.6905H7.26287V16.8321H7.40454V16.6905ZM7.40454 15.0605L7.39691 14.919L7.26287 14.9263V15.0605H7.40454ZM10.0964 4.54762V8.59524H10.3797V4.54762H10.0964ZM6.99997 1.45119C8.71008 1.45119 10.0964 2.83751 10.0964 4.54762H10.3797C10.3797 2.68103 8.86657 1.16786 6.99997 1.16786V1.45119ZM3.90354 4.54762C3.90354 2.83751 5.28986 1.45119 6.99997 1.45119V1.16786C5.13338 1.16786 3.62021 2.68103 3.62021 4.54762H3.90354ZM3.90354 8.59524V4.54762H3.62021V8.59524H3.90354ZM6.99997 11.6917C5.28986 11.6917 3.90354 10.3054 3.90354 8.59524H3.62021C3.62021 10.4618 5.13338 11.975 6.99997 11.975V11.6917ZM10.0964 8.59524C10.0964 10.3054 8.71008 11.6917 6.99997 11.6917V11.975C8.86657 11.975 10.3797 10.4618 10.3797 8.59524H10.0964ZM3.09402 4.54762C3.09402 2.39042 4.84278 0.641667 6.99997 0.641667V0.358333C4.68629 0.358333 2.81069 2.23394 2.81069 4.54762H3.09402ZM3.09402 8.59524V4.54762H2.81069V8.59524H3.09402ZM6.99997 12.5012C4.84278 12.5012 3.09402 10.7524 3.09402 8.59524H2.81069C2.81069 10.9089 4.68629 12.7845 6.99997 12.7845V12.5012ZM10.9059 8.59524C10.9059 10.7524 9.15717 12.5012 6.99997 12.5012V12.7845C9.31365 12.7845 11.1893 10.9089 11.1893 8.59524H10.9059ZM10.9059 4.54762V8.59524H11.1893V4.54762H10.9059ZM6.99997 0.641667C9.15717 0.641667 10.9059 2.39042 10.9059 4.54762H11.1893C11.1893 2.23394 9.31365 0.358333 6.99997 0.358333V0.641667ZM6.36081 8.22825C6.334 8.21215 6.31291 8.18872 6.29995 8.16116L6.04354 8.28171C6.08058 8.36049 6.14033 8.42634 6.21495 8.47115L6.36081 8.22825ZM6.45055 8.25096C6.41888 8.25232 6.38764 8.24436 6.36081 8.22824L6.21495 8.47115C6.28955 8.51595 6.37578 8.53777 6.46272 8.53403L6.45055 8.25096ZM6.53781 8.22068C6.51257 8.23899 6.4822 8.2496 6.45054 8.25096L6.46272 8.53403C6.54966 8.5303 6.63369 8.50114 6.70414 8.45006L6.53781 8.22068ZM6.59238 8.14883C6.58193 8.17732 6.56303 8.2024 6.53781 8.22068L6.70414 8.45006C6.77461 8.39896 6.82839 8.32816 6.85837 8.24643L6.59238 8.14883ZM7.71257 5.11022L6.59246 8.14863L6.8583 8.24663L7.97842 5.20823L7.71257 5.11022ZM7.72662 5.04437C7.72684 5.06493 7.72285 5.08536 7.71485 5.10444L7.97614 5.214C7.99906 5.15933 8.01057 5.10059 8.00993 5.04132L7.72662 5.04437ZM7.71355 4.98454C7.72197 5.00346 7.7264 5.02381 7.72662 5.04437L8.00993 5.04133C8.0093 4.98206 7.99653 4.92358 7.97244 4.86941L7.71355 4.98454ZM7.67739 4.93408C7.69287 4.94843 7.70514 4.96561 7.71355 4.98454L7.97244 4.86941C7.94836 4.81525 7.91348 4.76659 7.87002 4.7263L7.67739 4.93408ZM7.62339 4.90125C7.64357 4.90854 7.66192 4.91973 7.67739 4.93408L7.87002 4.7263C7.82655 4.686 7.77539 4.6549 7.71964 4.63477L7.62339 4.90125ZM7.56018 4.89189C7.58171 4.89077 7.60322 4.89397 7.62339 4.90125L7.71964 4.63477C7.6639 4.61463 7.60466 4.60586 7.54547 4.60894L7.56018 4.89189ZM7.49838 4.90773C7.51762 4.89841 7.53864 4.89301 7.56018 4.89189L7.54547 4.60894C7.48628 4.61201 7.42827 4.62688 7.37493 4.65271L7.49838 4.90773ZM7.44833 4.94585C7.46215 4.93004 7.47915 4.91704 7.49838 4.90773L7.37492 4.65271C7.32157 4.67853 7.27394 4.71481 7.23495 4.75945L7.44833 4.94585ZM7.41784 4.9996C7.42419 4.97995 7.43453 4.96165 7.44833 4.94585L7.23495 4.75944C7.19595 4.80409 7.16642 4.85616 7.14821 4.91256L7.41784 4.9996ZM6.29502 8.0443L7.41594 5.0051L7.15011 4.90706L6.02919 7.94626L6.29502 8.0443ZM6.28558 8.10328C6.28473 8.08339 6.28787 8.0635 6.29486 8.04473L6.02935 7.94583C6.00918 7.99999 6.00004 8.05761 6.0025 8.11535L6.28558 8.10328ZM6.29983 8.1609C6.29125 8.14275 6.28643 8.12317 6.28558 8.10328L6.0025 8.11534C6.00496 8.17308 6.01897 8.22972 6.04367 8.28197L6.29983 8.1609ZM4.87214 8.25108C4.85123 8.25193 4.83038 8.24867 4.81083 8.24153L4.71364 8.50767C4.76802 8.52753 4.8258 8.53653 4.88365 8.53417L4.87214 8.25108ZM4.93239 8.2366C4.91353 8.24529 4.89304 8.25023 4.87214 8.25108L4.88365 8.53417C4.94151 8.53182 4.99837 8.51816 5.05095 8.49393L4.93239 8.2366ZM4.98187 8.20069C4.96804 8.21568 4.95124 8.22791 4.93239 8.2366L5.05095 8.49393C5.10354 8.4697 5.15086 8.43536 5.19012 8.39281L4.98187 8.20069ZM5.01313 8.14939C5.00629 8.16824 4.9957 8.18569 4.98187 8.20068L5.19011 8.39281C5.22938 8.35026 5.2598 8.30033 5.27952 8.24589L5.01313 8.14939ZM6.13107 5.11033L5.01337 8.14873L5.27928 8.24655L6.39698 5.20814L6.13107 5.11033ZM6.11555 5.01057C6.13352 5.0449 6.13771 5.08444 6.12747 5.12152L6.40058 5.19695C6.42998 5.0905 6.41779 4.97705 6.3666 4.87921L6.11555 5.01057ZM6.02919 4.93566C6.0669 4.94927 6.09757 4.97619 6.11555 5.01057L6.3666 4.87921C6.31543 4.78143 6.22921 4.70665 6.12544 4.66917L6.02919 4.93566ZM5.91274 4.93807C5.94983 4.9229 5.99145 4.92202 6.02919 4.93566L6.12544 4.66917C6.0217 4.63171 5.90757 4.63407 5.80548 4.67582L5.91274 4.93807ZM5.82975 5.0164C5.84623 4.98135 5.87569 4.95322 5.91274 4.93807L5.80548 4.67582C5.70336 4.71759 5.62035 4.79591 5.57337 4.89579L5.82975 5.0164ZM4.71437 8.04506L5.83449 5.00507L5.56863 4.90711L4.44851 7.94711L4.71437 8.04506ZM4.70497 8.10417C4.70411 8.0842 4.70725 8.06424 4.71425 8.0454L4.44863 7.94677C4.42851 8.00097 4.41941 8.05861 4.4219 8.11636L4.70497 8.10417ZM4.71929 8.16201C4.71068 8.14379 4.70583 8.12413 4.70497 8.10417L4.4219 8.11636C4.42439 8.17412 4.43841 8.23077 4.4631 8.28304L4.71929 8.16201ZM4.75536 8.21047C4.74013 8.19673 4.7279 8.18024 4.71929 8.16201L4.4631 8.28304C4.48779 8.3353 4.52264 8.38211 4.56556 8.42084L4.75536 8.21047ZM4.80818 8.24194C4.78854 8.23495 4.77061 8.22422 4.75536 8.21047L4.56557 8.42084C4.60848 8.45956 4.65862 8.48944 4.71308 8.50884L4.80818 8.24194ZM4.69953 8.24757L4.69792 8.24836L4.82333 8.50243L4.82494 8.50163L4.69953 8.24757ZM7.6221 8.28164C7.64663 8.33389 7.6813 8.38073 7.72404 8.41952L7.91446 8.20972C7.8993 8.19595 7.88713 8.17946 7.87858 8.16123L7.6221 8.28164ZM7.57936 8.11867C7.58284 8.1762 7.59779 8.23242 7.62329 8.28411L7.87739 8.15877C7.86853 8.1408 7.86337 8.12135 7.86217 8.10153L7.57936 8.11867ZM7.60301 7.94915C7.58392 8.00353 7.57587 8.06114 7.57936 8.11867L7.86217 8.10153C7.86097 8.08171 7.86374 8.06183 7.87035 8.043L7.60301 7.94915ZM8.72875 4.90692L7.60382 7.94691L7.86954 8.04524L8.99448 5.00525L8.72875 4.90692ZM8.81354 4.75944C8.77454 4.80409 8.74501 4.85616 8.7268 4.91256L8.99643 4.99961C9.00278 4.97995 9.01312 4.96165 9.02692 4.94585L8.81354 4.75944ZM8.95352 4.65271C8.90017 4.67853 8.85253 4.71481 8.81354 4.75945L9.02692 4.94585C9.04074 4.93004 9.05774 4.91704 9.07697 4.90773L8.95352 4.65271ZM9.12406 4.60894C9.06487 4.61201 9.00686 4.62688 8.95352 4.65271L9.07697 4.90773C9.09621 4.89841 9.11724 4.89301 9.13877 4.89189L9.12406 4.60894ZM9.29824 4.63477C9.24249 4.61463 9.18325 4.60586 9.12406 4.60894L9.13877 4.89189C9.1603 4.89077 9.18182 4.89397 9.20199 4.90125L9.29824 4.63477ZM9.44861 4.7263C9.40515 4.686 9.35398 4.6549 9.29824 4.63477L9.20199 4.90125C9.22216 4.90854 9.24052 4.91974 9.25599 4.93408L9.44861 4.7263ZM9.55103 4.86941C9.52695 4.81526 9.49208 4.76659 9.44861 4.7263L9.25599 4.93408C9.27146 4.94842 9.28372 4.9656 9.29214 4.98454L9.55103 4.86941ZM9.58852 5.04132C9.58789 4.98206 9.57512 4.92358 9.55103 4.86941L9.29214 4.98454C9.30056 5.00346 9.30499 5.02381 9.30521 5.04437L9.58852 5.04132ZM9.55473 5.214C9.57765 5.15933 9.58916 5.10059 9.58852 5.04133L9.30521 5.04437C9.30543 5.06493 9.30144 5.08536 9.29344 5.10444L9.55473 5.214ZM8.43689 8.24663L9.55701 5.20823L9.29116 5.11022L8.17105 8.14863L8.43689 8.24663ZM8.2747 8.45558C8.34891 8.40421 8.40564 8.33135 8.43688 8.24665L8.17105 8.14861C8.16013 8.17823 8.14013 8.20414 8.11345 8.2226L8.2747 8.45558ZM8.02209 8.5345C8.11232 8.53441 8.2005 8.50693 8.2747 8.45558L8.11345 8.2226C8.08675 8.24108 8.05475 8.25113 8.02177 8.25117L8.02209 8.5345ZM7.87107 8.50787C7.9192 8.52521 7.96996 8.53421 8.02111 8.5345L8.02275 8.25117C8.00372 8.25106 7.98488 8.24772 7.96709 8.2413L7.87107 8.50787ZM7.72404 8.41952C7.76678 8.45831 7.81675 8.4883 7.87106 8.50787L7.96709 8.24131C7.94751 8.23425 7.92964 8.22349 7.91446 8.20972L7.72404 8.41952ZM1.30719 9.40472C1.30719 12.1827 3.87425 14.4035 6.99988 14.4035V14.1202C3.99401 14.1202 1.59052 11.9918 1.59052 9.40472H1.30719ZM1.30719 8.24825V9.40472H1.59052V8.24825H1.30719ZM0.986267 7.92734C1.16351 7.92734 1.30719 8.07102 1.30719 8.24825H1.59052C1.59052 7.91454 1.31999 7.644 0.986267 7.644V7.92734ZM0.665348 8.24825C0.665348 8.07102 0.809029 7.92734 0.986267 7.92734V7.644C0.652548 7.644 0.382015 7.91454 0.382015 8.24825H0.665348ZM0.665348 9.40472V8.24825H0.382015V9.40472H0.665348ZM6.60265 14.919C3.27234 14.7393 0.665348 12.3238 0.665348 9.40472H0.382015C0.382015 12.5069 3.14147 15.016 6.58738 15.202L6.60265 14.919ZM6.73668 16.6905V15.0605H6.45335V16.6905H6.73668ZM4.97597 16.8321H6.59501V16.5488H4.97597V16.8321ZM4.71287 17.0952C4.71287 16.9499 4.83066 16.8321 4.97597 16.8321V16.5488C4.67418 16.5488 4.42954 16.7934 4.42954 17.0952H4.71287ZM4.97597 17.3583C4.83066 17.3583 4.71287 17.2405 4.71287 17.0952H4.42954C4.42954 17.397 4.67418 17.6416 4.97597 17.6416V17.3583ZM9.02359 17.3583H4.97597V17.6416H9.02359V17.3583ZM9.28668 17.0952C9.28668 17.2405 9.16889 17.3583 9.02359 17.3583V17.6416C9.32537 17.6416 9.57002 17.397 9.57002 17.0952H9.28668ZM9.02359 16.8321C9.16889 16.8321 9.28668 16.9499 9.28668 17.0952H9.57002C9.57002 16.7934 9.32537 16.5488 9.02359 16.5488V16.8321ZM7.40454 16.8321H9.02359V16.5488H7.40454V16.8321ZM7.26287 15.0605V16.6905H7.54621V15.0605H7.26287ZM13.3344 9.40472C13.3344 12.3239 10.7273 14.7394 7.39691 14.919L7.41217 15.202C10.8582 15.0161 13.6177 12.5069 13.6177 9.40472H13.3344ZM13.3344 8.24825V9.40472H13.6177V8.24825H13.3344ZM13.0135 7.92734C13.1907 7.92734 13.3344 8.07102 13.3344 8.24825H13.6177C13.6177 7.91454 13.3472 7.644 13.0135 7.644V7.92734ZM12.6926 8.24825C12.6926 8.07102 12.8362 7.92734 13.0135 7.92734V7.644C12.6798 7.644 12.4092 7.91454 12.4092 8.24825H12.6926ZM12.6926 9.40472V8.24825H12.4092V9.40472H12.6926ZM6.99988 14.4035C10.1255 14.4035 12.6926 12.1827 12.6926 9.40472H12.4092C12.4092 11.9918 10.0057 14.1202 6.99988 14.1202V14.4035Z" fill="#007AFF"/>
</svg>
