<svg width="167" height="89" viewBox="0 0 167 89" fill="none" xmlns="http://www.w3.org/2000/svg">
<path d="M120.496 88.6258H27.7645C24.0212 88.6258 20.378 87.8936 16.955 86.4392C13.6521 85.035 10.6794 83.029 8.12718 80.4813C5.57492 77.9236 3.57315 74.9547 2.18192 71.6347C0.730642 68.2043 0 64.5634 0 60.802V47.0005C0 43.2492 0.730642 39.5982 2.18192 36.1679C3.58316 32.8579 5.58493 29.8789 8.12718 27.3212C10.6794 24.7635 13.642 22.7575 16.955 21.3633C20.378 19.9089 24.0112 19.1767 27.7645 19.1767H121.627V22.0554H27.7645C14.0424 22.0554 2.87254 33.2491 2.87254 47.0005V60.802C2.87254 74.5535 14.0424 85.7472 27.7645 85.7472H120.496C134.219 85.7472 145.388 74.5535 145.388 60.802V45.6163H148.261V60.802C148.261 64.5533 147.53 68.2043 146.079 71.6347C144.678 74.9446 142.676 77.9236 140.134 80.4813C137.582 83.039 134.619 85.045 131.306 86.4392C127.883 87.8936 124.25 88.6258 120.496 88.6258Z" fill="white"/>
<path d="M22.8 34.6333H35.5813C44.5292 34.6333 51.2652 37.6323 51.2652 46.5792C51.2652 55.5262 44.5393 59.0568 35.8316 59.0568H30.1465V73.1192H22.8V34.6232V34.6333ZM35.2711 53.47C41.1963 53.47 43.9788 51.2332 43.9788 46.5792C43.9788 41.9252 40.896 40.2201 35.0309 40.2201H30.1566V53.46H35.2811L35.2711 53.47Z" fill="white"/>
<path d="M57.0603 34.6333H70.7023C79.1598 34.6333 85.6455 37.4618 85.6455 46.1078C85.6455 51.9354 82.4928 55.5262 77.6785 57.1109L87.247 73.1192H79.0397L70.3921 58.1741H64.4068V73.1192H57.0603V34.6232V34.6333ZM69.9617 52.5873C75.4566 52.5873 78.4192 50.4108 78.4192 46.1178C78.4192 41.8249 75.4566 40.2301 69.9617 40.2301H64.4068V52.5873H69.9617Z" fill="white"/>
<path d="M90.4697 53.7007C90.4697 41.2833 98.3467 33.9211 109.767 33.9211C121.187 33.9211 129.064 41.2833 129.064 53.7007C129.064 66.1181 121.187 73.8313 109.767 73.8313C98.3467 73.8313 90.4697 66.1783 90.4697 53.7007ZM121.677 53.7007C121.677 45.165 116.973 40.0496 109.767 40.0496C102.56 40.0496 97.8562 45.175 97.8562 53.7007C97.8562 62.2264 102.49 67.7631 109.767 67.7631C117.043 67.7631 121.677 62.2866 121.677 53.7007Z" fill="white"/>
<path d="M146.279 1.00199L144.608 5.46543C142.366 11.4635 137.622 16.1877 131.616 18.3843L127.032 20.0594C126.522 20.25 126.522 20.9721 127.032 21.1527L131.616 22.8277C137.622 25.0243 142.366 29.7486 144.608 35.7466L146.279 40.2101C146.469 40.7116 147.18 40.7116 147.37 40.2101L149.042 35.7466C151.284 29.7486 156.028 25.0243 162.033 22.8277L166.617 21.1527C167.128 20.9621 167.128 20.2399 166.617 20.0594L162.033 18.3843C156.028 16.1877 151.284 11.4635 149.042 5.46543L147.37 1.00199C147.18 0.500477 146.469 0.500477 146.279 1.00199Z" fill="#E11F26"/>
</svg>
