<svg width="106" height="107" viewBox="0 0 106 107" fill="none" xmlns="http://www.w3.org/2000/svg">
<path d="M52.4649 1.64087L41.9249 29.7709C39.6849 35.7509 34.9449 40.4609 28.9449 42.6509L0.384941 53.0809C-0.125059 53.2709 -0.125059 53.9909 0.384941 54.1709L28.9349 64.6009C34.9349 66.7909 39.6749 71.5009 41.9149 77.4809L52.4549 105.611C52.6449 106.111 53.3549 106.111 53.5449 105.611L64.0849 77.4809C66.3249 71.5009 71.0649 66.7909 77.0649 64.6009L105.615 54.1709C106.125 53.9809 106.125 53.2609 105.615 53.0809L77.0649 42.6509C71.0649 40.4609 66.3249 35.7509 64.0849 29.7709L53.5449 1.64087C53.3549 1.14087 52.6449 1.14087 52.4549 1.64087H52.4649Z" fill="white"/>
</svg>
