<svg width="24" height="24" viewBox="0 0 24 24" fill="none" xmlns="http://www.w3.org/2000/svg">
<rect x="2" y="2" width="20" height="20" rx="10" fill="#E11F26"/>
<g clip-path="url(#clip0_16963_476969)">
<path d="M12.082 5.58936C12.9282 5.58943 13.6507 5.88847 14.248 6.48486C14.8452 7.08217 15.1426 7.80387 15.1426 8.65088V9.87549H15.7549C16.0915 9.87554 16.3802 9.99506 16.6191 10.2349C16.8588 10.4747 16.9785 10.7625 16.9785 11.0991V17.2212C16.9785 17.5578 16.8589 17.8456 16.6191 18.0854C16.3793 18.3253 16.0915 18.4448 15.7549 18.4448H8.40918V18.4468C8.07248 18.4468 7.7838 18.3273 7.54395 18.0874C7.30425 17.8477 7.18466 17.5596 7.18457 17.2231V11.1001C7.18457 10.7634 7.30409 10.4738 7.54395 10.2349C7.7838 9.99501 8.07248 9.87549 8.40918 9.87549H9.02051V8.65088C9.02062 7.80394 9.31972 7.08308 9.91602 6.48584C10.5134 5.88846 11.2357 5.58936 12.082 5.58936ZM12.1475 11.7983C12.1248 11.7379 12.0393 11.7378 12.0166 11.7983L11.8145 12.3374C11.5438 13.0595 10.9709 13.6279 10.2461 13.8931L9.69336 14.0942C9.63181 14.1169 9.63181 14.2044 9.69336 14.2271L10.2461 14.4282C10.9711 14.6925 11.5438 15.2617 11.8145 15.9849L12.0166 16.5229C12.0392 16.5836 12.1248 16.5836 12.1475 16.5229L12.3496 15.9849C12.6202 15.2626 13.193 14.6934 13.918 14.4282L14.4707 14.2271C14.5323 14.2044 14.5323 14.1169 14.4707 14.0942L13.918 13.8931C13.1931 13.6288 12.6203 13.0604 12.3496 12.3374L12.1475 11.7983ZM12.082 6.81396C11.5725 6.81396 11.1379 6.99258 10.7812 7.3501C10.4238 7.70761 10.2451 8.14133 10.2451 8.65088V9.87549H13.918V8.65088C13.918 8.14057 13.7401 7.70664 13.3828 7.3501C13.0254 6.99265 12.5915 6.81404 12.082 6.81396Z" fill="#FFFBFE"/>
</g>
<defs>
<clipPath id="clip0_16963_476969">
<rect width="9.79605" height="12.8571" fill="white" transform="translate(7.18433 5.58936)"/>
</clipPath>
</defs>
</svg>
