<svg width="16" height="16" viewBox="0 0 16 16" fill="none" xmlns="http://www.w3.org/2000/svg">
<path fill-rule="evenodd" clip-rule="evenodd" d="M0 15.9998H16V-0.000244141H0V15.9998ZM6.86862 5.22885C7.00932 4.84227 6.79716 4.41992 6.40944 4.2788C6.02172 4.13768 5.58771 4.32485 5.447 4.71143L3.24355 10.7654C3.10285 11.1519 3.31501 11.5743 3.70273 11.7154C4.09045 11.8565 4.52446 11.6694 4.66516 11.2828L6.86862 5.22885ZM9.80585 5.23425C9.94655 4.84767 9.73439 4.42532 9.34667 4.2842C8.95895 4.14308 8.52494 4.33025 8.38424 4.71683L6.18079 10.7708C6.04008 11.1573 6.25224 11.5797 6.63996 11.7208C7.02768 11.8619 7.46169 11.6748 7.6024 11.2882L9.80585 5.23425ZM12.7563 5.23374C12.8971 4.84716 12.6849 4.4248 12.2972 4.28368C11.9095 4.14256 11.4754 4.32973 11.3347 4.71631L9.13128 10.7702C8.99058 11.1568 9.20274 11.5792 9.59046 11.7203C9.97818 11.8614 10.4122 11.6743 10.5529 11.2877L12.7563 5.23374Z" fill="#007AFF"/>
</svg>
