<svg width="16" height="16" viewBox="0 0 16 16" fill="none" xmlns="http://www.w3.org/2000/svg">
<path fill-rule="evenodd" clip-rule="evenodd" d="M9.76583 1.19448C9.93607 0.735726 9.70218 0.225831 9.24343 0.0555909C8.78469 -0.114649 8.27479 0.119234 8.10455 0.577983L2.82477 14.8055C2.65453 15.2643 2.88841 15.7742 3.34716 15.9444C3.80591 16.1146 4.31581 15.8808 4.48605 15.422L9.76583 1.19448ZM15.9457 8.36809C16.116 7.90934 15.8821 7.39944 15.4234 7.2292C14.9646 7.05896 14.4547 7.29284 14.2845 7.75159L13.7 9.32661C13.5297 9.78536 13.7636 10.2953 14.2224 10.4655C14.6811 10.6357 15.191 10.4019 15.3613 9.9431L15.9457 8.36809ZM12.5678 3.01121C13.0265 3.18145 13.2604 3.69135 13.0902 4.1501L10.0041 12.4663C9.83382 12.9251 9.32392 13.159 8.86517 12.9887C8.40642 12.8185 8.17254 12.3086 8.34278 11.8498L11.4289 3.5336C11.5991 3.07485 12.109 2.84097 12.5678 3.01121ZM3.96367 4.91496C4.13391 4.45621 3.90003 3.94632 3.44128 3.77608C2.98253 3.60584 2.47264 3.83972 2.3024 4.29847L0.0543702 10.3563C-0.11587 10.815 0.118013 11.3249 0.576762 11.4952C1.03551 11.6654 1.54541 11.4315 1.71565 10.9728L3.96367 4.91496Z" fill="#007AFF"/>
</svg>
