<svg width="16" height="16" viewBox="0 0 16 16" fill="none" xmlns="http://www.w3.org/2000/svg">
<path fill-rule="evenodd" clip-rule="evenodd" d="M9.76607 1.19448C9.93631 0.735726 9.70243 0.225831 9.24368 0.0555909C8.78493 -0.114649 8.27503 0.119234 8.10479 0.577983L2.82501 14.8055C2.65477 15.2643 2.88866 15.7742 3.3474 15.9444C3.80615 16.1146 4.31605 15.8808 4.48629 15.422L9.76607 1.19448ZM15.946 8.36809C16.1162 7.90934 15.8823 7.39944 15.4236 7.2292C14.9648 7.05896 14.455 7.29284 14.2847 7.75159L13.7002 9.32661C13.53 9.78536 13.7639 10.2953 14.2226 10.4655C14.6814 10.6357 15.1913 10.4019 15.3615 9.9431L15.946 8.36809ZM12.568 3.01121C13.0268 3.18145 13.2607 3.69135 13.0904 4.1501L10.0043 12.4663C9.83406 12.9251 9.32417 13.159 8.86542 12.9887C8.40667 12.8185 8.17279 12.3086 8.34303 11.8498L11.4291 3.5336C11.5994 3.07485 12.1093 2.84097 12.568 3.01121ZM3.96392 4.91496C4.13416 4.45621 3.90027 3.94632 3.44152 3.77608C2.98278 3.60584 2.47288 3.83972 2.30264 4.29847L0.0546143 10.3563C-0.115625 10.815 0.118257 11.3249 0.577006 11.4952C1.03575 11.6654 1.54565 11.4315 1.71589 10.9728L3.96392 4.91496Z" fill="#0A3049"/>
</svg>
