<svg width="17" height="14" viewBox="0 0 17 14" fill="none" xmlns="http://www.w3.org/2000/svg">
<path fill-rule="evenodd" clip-rule="evenodd" d="M5.90663 0.840153C6.44452 1.03593 6.72733 1.61568 6.53829 2.13506L2.74206 12.5651C2.55302 13.0845 1.96373 13.3468 1.42583 13.151C0.887931 12.9553 0.605124 12.3755 0.794162 11.8561L4.59039 1.42608C4.77943 0.906703 5.36873 0.644375 5.90663 0.840153ZM10.9669 0.849271C11.5048 1.04505 11.7876 1.6248 11.5985 2.14417L7.8023 12.5742C7.61326 13.0936 7.02396 13.3559 6.48606 13.1602C5.94817 12.9644 5.66536 12.3846 5.8544 11.8653L9.65063 1.4352C9.83967 0.91582 10.429 0.653492 10.9669 0.849271ZM16.6822 2.14352C16.8712 1.62415 16.5884 1.0444 16.0505 0.84862C15.5126 0.652841 14.9233 0.915169 14.7343 1.43455L10.9381 11.8646C10.749 12.384 11.0318 12.9637 11.5697 13.1595C12.1076 13.3553 12.6969 13.093 12.886 12.5736L16.6822 2.14352Z" fill="#007AFF"/>
</svg>
